<?xml version="1.0" standalone="no"?>
<!DOCTYPE svg PUBLIC "-//W3C//DTD SVG 20010904//EN"
 "http://www.w3.org/TR/2001/REC-SVG-20010904/DTD/svg10.dtd">
<svg version="1.0" xmlns="http://www.w3.org/2000/svg"
 width="284.000000pt" height="284.000000pt" viewBox="0 0 284.000000 284.000000"
 preserveAspectRatio="xMidYMid meet">
<metadata>
Created by potrace 1.11, written by Peter Selinger 2001-2013
</metadata>
<g transform="translate(0.000000,284.000000) scale(0.100000,-0.100000)"
fill="#000000" stroke="none">
<path d="M1361 2480 c-56 -49 -192 -120 -304 -159 -153 -54 -428 -108 -559
-110 l-26 -1 0 -140 c0 -123 2 -140 17 -140 29 0 77 -37 91 -69 7 -17 10 -34
7 -37 -3 -3 -136 -5 -296 -5 l-291 0 0 -379 0 -380 276 1 c152 0 278 -2 281
-5 3 -3 -4 -18 -16 -35 -20 -27 -75 -53 -136 -63 -15 -2 -1 -19 65 -77 380
-328 759 -537 958 -527 157 8 395 128 686 345 126 93 148 111 199 155 12 10
41 34 65 53 23 20 42 39 42 43 0 4 -17 10 -38 14 -57 9 -140 71 -121 91 4 3
129 7 280 8 l274 2 0 375 0 375 -270 2 c-148 1 -282 2 -297 3 -26 0 -27 2 -17
28 15 39 47 70 80 77 l29 7 0 138 0 138 -72 7 c-319 29 -638 128 -789 246 -30
23 -58 45 -64 50 -5 4 -30 -10 -54 -31z"/>
</g>
</svg>
