<!-- Generated by IcoMoon.io -->
<svg version="1.1" xmlns="http://www.w3.org/2000/svg" width="1024" height="1024" viewBox="0 0 1024 1024">
<title></title>
<g id="icomoon-ignore">
</g>
<path d="M958.881 0h-363.272c-35.909 0-65.119 29.214-65.119 65.119s29.211 65.119 65.119 65.119h206.063l-343.737 343.733c-12.306 12.298-19.078 28.649-19.078 46.049s6.769 33.747 19.071 46.034c12.302 12.313 28.649 19.089 46.049 19.089 17.392 0 33.747-6.772 46.052-19.078l343.733-343.737v206.063c0 35.905 29.214 65.119 65.119 65.119s65.119-29.214 65.119-65.119v-363.272c0-35.905-29.214-65.119-65.119-65.119z"></path>
<path d="M700.144 919.572h-595.716v-595.716h448.034l104.428-104.428h-604.676c-28.836 0-52.214 23.378-52.214 52.214v700.144c0 28.836 23.378 52.214 52.214 52.214h700.144c28.836 0 52.214-23.378 52.214-52.214v-604.676l-104.428 104.428v448.034z"></path>
</svg>
