<!-- Generated by IcoMoon.io -->
<svg version="1.1" xmlns="http://www.w3.org/2000/svg" width="916" height="1024" viewBox="0 0 916 1024">
<title></title>
<g id="icomoon-ignore">
</g>
<path d="M116.736 561.441c-3.164-7.639-11.921-11.266-19.56-8.102l-35.864 14.855c-7.639 3.164-11.266 11.921-8.102 19.56 2.387 5.765 7.962 9.246 13.837 9.246 1.91 0 3.85-0.367 5.723-1.144l35.864-14.855c7.637-3.164 11.266-11.923 8.102-19.56z"></path>
<path d="M78.646 198.069l12.35 13.526c4.974 5.449 11.991 8.461 19.206 8.461 1.918 0 3.85-0.214 5.763-0.651 9.106-2.078 16.426-8.927 19.107-17.871l5.256-17.544 18.274-1.222c9.318-0.623 17.624-6.236 21.676-14.649s3.262-18.408-2.060-26.081l-10.438-15.051 10.438-15.049c5.322-7.673 6.112-17.667 2.060-26.081s-12.358-14.027-21.676-14.649l-18.274-1.222-5.258-17.544c-2.681-8.947-10.002-15.795-19.107-17.873-9.104-2.082-18.672 0.914-24.969 7.813l-12.348 13.528-16.995-6.829c-8.665-3.479-18.584-2.028-25.885 3.797-7.302 5.823-10.927 15.168-9.46 24.392l2.876 18.089-15.935 9.028c-8.126 4.605-13.172 13.266-13.172 22.606 0 9.338 5.048 17.999 13.172 22.604l15.935 9.028-2.876 18.089c-1.465 9.224 2.16 18.57 9.462 24.392 7.302 5.821 17.214 7.274 25.883 3.795l16.995-6.833zM46.336 133.928l-12.244-6.938 12.246-6.938c9.378-5.316 14.542-16.039 12.849-26.684l-2.21-13.899 13.060 5.248c10.002 4.018 21.606 1.369 28.874-6.591l9.487-10.394 4.040 13.482c3.094 10.326 12.4 17.747 23.155 18.464l14.041 0.938-8.022 11.565c-6.144 8.859-6.144 20.759 0 29.616l8.020 11.565-14.041 0.938c-10.755 0.719-20.061 8.138-23.157 18.464l-4.038 13.482-9.487-10.392c-5.006-5.485-12.068-8.449-19.25-8.449-3.244 0-6.513 0.605-9.625 1.856l-13.058 5.248 2.21-13.897c1.693-10.647-3.471-21.37-12.849-26.684z"></path>
<path d="M332.277 418.473c0-8.268-6.703-14.971-14.971-14.971h-35.994c-8.268 0-14.971 6.703-14.971 14.971s6.703 14.971 14.971 14.971h35.994c8.268 0 14.971-6.703 14.971-14.971z"></path>
<path d="M462.149 294.754h0.096c8.268-0.052 14.929-6.795 14.877-15.063l-0.259-41.888c-0.050-8.236-6.745-14.879-14.969-14.879h-0.096c-8.268 0.052-14.929 6.795-14.877 15.063l0.259 41.888c0.052 8.238 6.743 14.879 14.969 14.879z"></path>
<path d="M550.678 204.121c1.872 0.776 3.813 1.144 5.723 1.144 5.875 0 11.448-3.481 13.837-9.246l33.035-79.754c3.166-7.639-0.461-16.396-8.102-19.56-7.635-3.162-16.394 0.463-19.56 8.102l-33.035 79.754c-3.164 7.637 0.463 16.396 8.102 19.56z"></path>
<path d="M609.963 60.999c1.874 0.776 3.813 1.144 5.723 1.144 5.875 0 11.448-3.481 13.837-9.246l13.336-32.195c3.166-7.639-0.461-16.396-8.102-19.56-7.635-3.16-16.396 0.463-19.56 8.102l-13.336 32.195c-3.166 7.639 0.461 16.396 8.102 19.56z"></path>
<path d="M353.543 196.019c2.387 5.765 7.962 9.246 13.837 9.246 1.91 0 3.85-0.367 5.723-1.144 7.639-3.164 11.266-11.923 8.102-19.56l-40.557-97.915c-3.166-7.639-11.923-11.264-19.56-8.102-7.639 3.164-11.266 11.923-8.102 19.56l40.557 97.915z"></path>
<path d="M578.915 280.277l-17.552 17.811c-5.803 5.888-5.735 15.368 0.154 21.171 2.918 2.874 6.713 4.308 10.509 4.308 3.868 0 7.735-1.491 10.663-4.463l17.552-17.811c5.803-5.888 5.735-15.368-0.154-21.171-5.892-5.801-15.37-5.733-21.173 0.156z"></path>
<path d="M227.979 499.157l-78.473 32.505c-7.639 3.164-11.266 11.923-8.102 19.56 2.387 5.765 7.962 9.246 13.837 9.246 1.91 0 3.85-0.367 5.723-1.144l78.473-32.505c7.639-3.164 11.266-11.923 8.102-19.56-3.162-7.637-11.919-11.262-19.56-8.102z"></path>
<path d="M353.53 331.023c2.92 2.902 6.737 4.352 10.553 4.352 3.846 0 7.693-1.473 10.619-4.417 5.829-5.865 5.799-15.342-0.066-21.171l-41.559-41.299c-5.865-5.829-15.344-5.799-21.171 0.066-5.829 5.865-5.799 15.344 0.066 21.171l41.557 41.299z"></path>
<path d="M125.513 279.139c-3.164 7.639 0.463 16.396 8.102 19.56l94.366 39.088c1.874 0.776 3.815 1.144 5.723 1.144 5.875 0 11.45-3.481 13.837-9.246 3.164-7.639-0.463-16.396-8.102-19.56l-94.364-39.088c-7.645-3.162-16.398 0.465-19.562 8.102z"></path>
<path d="M240.412 681.984l-10.955-6.208 1.978-12.436c1.341-8.444-1.976-17.001-8.661-22.33s-15.763-6.659-23.698-3.473l-11.683 4.695-8.491-9.3c-5.765-6.314-14.522-9.058-22.857-7.152-8.336 1.902-15.039 8.172-17.494 16.362l-3.615 12.062-12.561 0.84c-8.531 0.569-16.134 5.709-19.845 13.41-3.709 7.703-2.988 16.853 1.886 23.877l7.176 10.346-7.176 10.348c-4.872 7.024-5.595 16.174-1.886 23.875 3.709 7.703 11.312 12.843 19.843 13.414l12.561 0.838 3.615 12.062c2.453 8.19 9.156 14.46 17.494 16.362 1.749 0.399 3.519 0.595 5.274 0.595 6.607-0.002 13.031-2.759 17.584-7.745l8.489-9.3 11.687 4.695c7.935 3.186 17.013 1.856 23.696-3.475 6.685-5.33 10.002-13.887 8.661-22.33l-1.978-12.436 10.955-6.208c7.439-4.214 12.058-12.142 12.060-20.694 0-8.549-4.621-16.48-12.058-20.696zM210.982 705.636c-8.587 4.866-13.316 14.683-11.765 24.428l0.942 5.924-5.565-2.236c-9.16-3.681-19.781-1.256-26.434 6.032l-4.044 4.429-1.721-5.745c-2.832-9.452-11.352-16.246-21.199-16.905l-5.982-0.399 3.417-4.926c5.627-8.11 5.627-19.007 0-27.117l-3.417-4.926 5.984-0.399c9.847-0.659 18.364-7.453 21.197-16.905l1.721-5.745 4.044 4.431c6.653 7.286 17.274 9.709 26.434 6.032l5.565-2.238-0.942 5.92c-1.551 9.747 3.176 19.566 11.763 24.43l5.218 2.956-5.216 2.956z"></path>
<path d="M657.44 418.473c0-8.268-6.701-14.971-14.971-14.971h-41.629c-8.27 0-14.971 6.703-14.971 14.971s6.701 14.971 14.971 14.971h41.629c8.268 0 14.971-6.703 14.971-14.971z"></path>
<path d="M570.849 506.002c-5.819-5.873-15.298-5.912-21.173-0.094-5.871 5.821-5.912 15.3-0.092 21.171l29.361 29.62c2.926 2.952 6.779 4.431 10.631 4.431 3.809 0 7.619-1.445 10.539-4.338 5.871-5.821 5.912-15.3 0.092-21.173l-29.359-29.618z"></path>
<path d="M786.406 765.391l-10.955-6.208 1.976-12.434c1.343-8.444-1.974-17.001-8.659-22.332-6.687-5.33-15.765-6.659-23.698-3.475l-11.683 4.695-8.491-9.3c-5.767-6.314-14.528-9.062-22.859-7.15-8.336 1.902-15.037 8.172-17.49 16.36l-3.615 12.062-12.561 0.84c-8.531 0.569-16.136 5.709-19.845 13.412s-2.986 16.853 1.884 23.875l7.178 10.348-7.176 10.344c-4.872 7.026-5.597 16.174-1.886 23.877s11.314 12.843 19.843 13.412l12.563 0.84 3.615 12.060c2.453 8.19 9.154 14.46 17.49 16.362 1.751 0.401 3.521 0.595 5.278 0.595 6.607-0.002 13.029-2.759 17.586-7.747l8.489-9.3 11.683 4.695c7.938 3.19 17.015 1.858 23.7-3.473s10.002-13.887 8.659-22.328l-1.976-12.436 10.957-6.208c7.437-4.216 12.056-12.144 12.056-20.694-0.004-8.549-4.623-16.48-12.062-20.694zM756.974 789.043c-8.585 4.866-13.312 14.681-11.763 24.426l0.942 5.922-5.565-2.236c-9.154-3.677-19.779-1.256-26.432 6.034l-4.042 4.429-1.723-5.749c-2.834-9.45-11.354-16.242-21.197-16.901l-5.984-0.399 3.419-4.928c5.623-8.108 5.623-19.005 0-27.113l-3.419-4.928 5.986-0.399c9.843-0.659 18.36-7.451 21.197-16.905l1.721-5.745 4.044 4.429c6.651 7.286 17.274 9.709 26.43 6.032l5.565-2.238-0.942 5.924c-1.547 9.745 3.18 19.56 11.767 24.426l5.218 2.956-5.222 2.96z"></path>
<path d="M909.5 87.234c-2.078-9.104-8.927-16.426-17.873-19.107l-17.544-5.256-1.222-18.272c-0.621-9.32-6.234-17.626-14.649-21.678s-18.412-3.262-26.081 2.060l-15.049 10.44-15.049-10.44c-7.671-5.324-17.667-6.114-26.081-2.060-8.416 4.052-14.027 12.358-14.649 21.674l-1.222 18.274-17.546 5.258c-8.947 2.681-15.793 10.002-17.871 19.109-2.076 9.104 0.916 18.672 7.813 24.967l13.526 12.35-6.829 16.995c-3.481 8.665-2.028 18.586 3.795 25.885s15.158 10.933 24.392 9.46l20.801-3.308c8.166-1.297 13.733-8.97 12.434-17.135-1.297-8.164-8.962-13.737-17.137-12.434l-13.899 2.21 5.25-13.060c4.016-10 1.367-21.604-6.593-28.872l-10.394-9.487 13.484-4.040c10.326-3.094 17.745-12.4 18.464-23.155l0.94-14.043 11.563 8.022c8.855 6.142 20.757 6.144 29.614 0l11.563-8.022 0.94 14.041c0.719 10.755 8.138 20.061 18.466 23.157l13.482 4.038-10.396 9.489c-7.956 7.268-10.607 18.869-6.589 28.874l5.248 13.056-13.903-2.21c-10.633-1.687-21.364 3.473-26.678 12.851-4.078 7.194-1.551 16.328 5.641 20.406 2.331 1.321 4.866 1.95 7.368 1.95 4.308 0 8.513-1.862 11.4-5.248l18.372 2.92c9.224 1.461 18.568-2.158 24.392-9.46 5.823-7.3 7.278-17.218 3.795-25.887l-6.829-16.993 13.526-12.35c6.897-6.3 9.891-15.867 7.813-24.971z"></path>
<path d="M570.24 640.926c-3.166-7.637-11.923-11.266-19.562-8.102-7.637 3.164-11.268 11.921-8.104 19.56l13.412 32.381c2.389 5.767 7.962 9.246 13.839 9.246 1.908 0 3.85-0.367 5.723-1.144 7.637-3.164 11.268-11.921 8.104-19.56l-13.412-32.381z"></path>
<path d="M793.718 539.714l-97.915-40.557c-7.633-3.16-16.396 0.463-19.56 8.102-3.166 7.639 0.461 16.396 8.102 19.56l97.915 40.557c1.874 0.776 3.813 1.144 5.723 1.144 5.875 0 11.448-3.481 13.837-9.246 3.166-7.637-0.463-16.394-8.102-19.56z"></path>
<path d="M344.743 556.793l29.88-29.62c5.871-5.821 5.912-15.298 0.092-21.171-5.819-5.871-15.3-5.912-21.171-0.092l-29.88 29.62c-5.871 5.821-5.912 15.3-0.092 21.173 2.926 2.952 6.779 4.431 10.631 4.431 3.811-0.004 7.621-1.449 10.539-4.342z"></path>
<path d="M782.262 269.568l-97.915 40.557c-7.639 3.164-11.268 11.923-8.102 19.56 2.387 5.765 7.96 9.246 13.837 9.246 1.908 0 3.85-0.367 5.723-1.144l97.915-40.557c7.639-3.164 11.268-11.923 8.102-19.56s-11.923-11.268-19.56-8.102z"></path>
<path d="M373.726 771.114c-8.268 0-14.971 6.703-14.971 14.971v83.912c0 8.268 6.703 14.971 14.971 14.971s14.971-6.703 14.971-14.971v-83.912c0-8.268-6.701-14.971-14.971-14.971z"></path>
<path d="M381.205 652.384c3.164-7.639-0.463-16.396-8.102-19.56-7.643-3.164-16.396 0.463-19.56 8.102l-21.754 52.517c-3.164 7.639 0.463 16.396 8.102 19.56 1.874 0.776 3.815 1.144 5.723 1.144 5.875 0 11.45-3.481 13.837-9.246l21.754-52.517z"></path>
<path d="M550.056 740.358c-8.27 0-14.971 6.703-14.971 14.971v111.85c0 8.268 6.701 14.971 14.971 14.971s14.971-6.703 14.971-14.971v-111.85c0-8.27-6.703-14.971-14.971-14.971z"></path>
<path d="M461.892 663.582c-8.268 0-14.971 6.703-14.971 14.971v328.484c0 8.268 6.703 14.971 14.971 14.971 8.27 0 14.971-6.703 14.971-14.971v-328.484c0-8.268-6.703-14.971-14.971-14.971z"></path>
<path d="M462.243 542.191h-0.094c-8.226 0-14.919 6.643-14.969 14.881l-0.259 42.786c-0.050 8.268 6.613 15.011 14.879 15.061h0.094c8.224 0 14.919-6.643 14.969-14.881l0.259-42.786c0.050-8.268-6.613-15.011-14.879-15.061z"></path>
<path d="M539.929 447.899l-6.829-16.993 13.526-12.35c6.897-6.296 9.891-15.863 7.813-24.967s-8.927-16.426-17.873-19.107l-17.544-5.256-1.22-18.274c-0.625-9.32-6.238-17.626-14.653-21.676-8.414-4.052-18.406-3.264-26.077 2.060l-15.051 10.438-15.049-10.438c-7.673-5.324-17.667-6.112-26.079-2.060-8.416 4.052-14.029 12.356-14.653 21.676l-1.222 18.274-17.546 5.258c-8.947 2.681-15.793 10.002-17.871 19.107s0.916 18.672 7.813 24.969l13.526 12.35-6.829 16.993c-3.483 8.665-2.028 18.586 3.795 25.885 4.966 6.23 12.498 9.781 20.328 9.781 1.349 0 2.709-0.106 4.064-0.321l19.372-3.078c6.633 3.553 15.017 1.623 19.382-4.717 4.689-6.811 2.97-16.132-3.839-20.821-5.519-3.801-12.2-5.31-18.815-4.26l-13.897 2.21 5.248-13.058c4.018-10 1.369-21.604-6.591-28.874l-10.394-9.487 13.48-4.038c10.328-3.092 17.749-12.398 18.466-23.155l0.938-14.043 11.563 8.022c8.857 6.144 20.761 6.144 29.616 0l11.565-8.022 0.938 14.041c0.719 10.757 8.14 20.063 18.466 23.157l13.482 4.038-10.396 9.489c-7.956 7.268-10.605 18.869-6.589 28.874l5.248 13.058-13.899-2.21c-6.805-1.080-13.625 0.535-19.22 4.545-6.719 4.819-8.26 14.172-3.441 20.889 4.477 6.244 12.869 8.014 19.428 4.367l19.332 3.072c9.222 1.473 18.568-2.156 24.392-9.46 5.821-7.302 7.276-17.22 3.795-25.889z"></path>
</svg>
