<!-- Generated by IcoMoon.io -->
<svg version="1.1" xmlns="http://www.w3.org/2000/svg" width="1051" height="1024" viewBox="0 0 1051 1024">
<title></title>
<g id="icomoon-ignore">
</g>
<path d="M439.826 585.432c-47.080-47.080-123.686-47.078-170.766 0.002-47.078 47.080-47.078 123.684 0.002 170.766 23.538 23.538 54.46 35.308 85.38 35.308 30.922 0 61.846-11.77 85.382-35.308 47.080-47.080 47.080-123.686 0.002-170.768zM418.394 734.76c-35.26 35.256-92.632 35.258-127.892 0.002-35.262-35.26-35.262-92.634-0.004-127.892 17.634-17.632 40.788-26.444 63.95-26.444 23.154 0 46.318 8.816 63.946 26.442 35.256 35.26 35.256 92.634 0 127.892z"></path>
<path d="M283.6 859.92l-123.982-123.98c-6.654-6.658-15.526-10.324-24.98-10.324s-18.326 3.666-24.98 10.322l-0.594 0.594c-6.656 6.658-10.32 15.53-10.32 24.98s3.664 18.324 10.32 24.98l123.982 123.982c6.658 6.656 15.53 10.32 24.98 10.32s18.324-3.664 24.98-10.32l0.592-0.594c6.658-6.656 10.324-15.528 10.324-24.98-0.002-9.452-3.668-18.324-10.322-24.98zM262.162 888.446l-0.594 0.594c-1.918 1.922-5.168 1.922-7.086 0l-123.98-123.982c-1.922-1.92-1.922-5.166 0-7.086l0.594-0.596c1.256-1.256 2.758-1.442 3.542-1.442s2.288 0.188 3.542 1.446l123.984 123.982c1.254 1.256 1.442 2.758 1.442 3.542s-0.188 2.286-1.444 3.542z"></path>
<path d="M407.228 618.036c-14.1-14.1-32.844-21.862-52.78-21.862-19.938 0-38.684 7.766-52.778 21.862-14.102 14.1-21.864 32.842-21.864 52.778 0 19.938 7.766 38.684 21.862 52.778 14.1 14.102 32.842 21.864 52.78 21.864 19.936 0 38.682-7.764 52.78-21.862 29.1-29.102 29.1-76.456 0-105.558zM385.79 702.158c-8.374 8.374-19.502 12.986-31.344 12.986s-22.972-4.612-31.346-12.986c-8.372-8.372-12.984-19.504-12.984-31.342s4.612-22.97 12.986-31.344c8.372-8.372 19.502-12.984 31.344-12.984s22.97 4.612 31.344 12.986c17.284 17.282 17.284 45.402 0 62.684z"></path>
<path d="M1021.56 181.492l-28.29-28.29 12.942-10.772c3.274-2.726 5.252-6.704 5.444-10.96s-1.41-8.396-4.422-11.412l-32.49-32.49c-0.154-0.184-0.296-0.374-0.46-0.552-0.46-0.502-0.956-0.948-1.466-1.372l-67.62-67.62c-3.012-3.010-7.126-4.608-11.412-4.422-4.254 0.194-8.234 2.17-10.96 5.444l-10.77 12.938-27.17-27.172c-5.922-5.918-15.518-5.918-21.438 0l-44.324 44.324c-5.92 5.922-5.92 15.518 0 21.438l33.186 33.186-52.182 62.688-259.73 240.148c-16.516-7.25-33.564-12.224-50.822-14.754-8.286-1.196-15.982 4.516-17.198 12.8-1.214 8.284 4.516 15.982 12.8 17.198 10.276 1.506 20.484 4.060 30.534 7.582l-32.146 29.722c-3.028 2.8-4.784 6.71-4.864 10.834-0.078 4.12 1.522 8.098 4.436 11.014l97.494 97.494c2.846 2.844 6.7 4.438 10.72 4.438 0.068 0 0.138 0 0.208-0.002 4.090-0.054 7.986-1.762 10.8-4.734l31.47-33.234c21.756 57.11 10.408 117.214-31.606 160.808-16.052 16.656-34.856 29.68-55.886 38.702-26.084 11.19-44.436 35.718-47.894 64.012-5.914 48.416-27.312 92.28-61.886 126.854-37.94 37.94-85.18 57.98-136.662 57.98-0.23 0-0.468 0-0.7-0.002-57.522-0.202-113.874-25.336-158.676-70.772-86.342-87.566-90.746-214.036-10.242-294.18 34.54-34.39 78.316-55.672 126.596-61.548 28.172-3.432 52.708-21.882 64.036-48.152 8.586-19.916 20.786-37.858 36.266-53.338 20.622-20.624 44.498-34.388 70.962-40.912 8.126-2.006 13.092-10.218 11.088-18.348-2.006-8.126-10.222-13.094-18.348-11.088-31.908 7.87-60.554 24.324-85.14 48.91-18.204 18.202-32.56 39.322-42.67 62.776-7.076 16.408-22.35 27.926-39.862 30.058-55.044 6.7-104.952 30.96-144.322 70.158-45.934 45.732-69.6 105.724-66.64 168.922 2.862 61.106 30.096 120.78 76.682 168.028 50.518 51.232 114.496 79.572 180.156 79.802 0.276 0.002 0.542 0.002 0.814 0.002 59.686-0.002 114.344-23.112 158.094-66.856 39.406-39.408 63.798-89.414 70.538-144.614 2.152-17.618 13.556-32.88 29.758-39.828 24.764-10.628 46.89-25.944 65.76-45.526 53.8-55.82 65.848-133.888 32.53-205.872l242.166-255.744 62.75-52.232 34.302 34.302c2.96 2.958 6.842 4.438 10.72 4.438s7.758-1.48 10.72-4.438l44.324-44.324c5.922-5.924 5.922-15.52 0.002-21.44zM926.14 81.84l15.058 15.058-118.988 109.642-3.784-3.786 107.714-120.914zM811.278 59.858l22.886-22.886 18.414 18.414-20.792 24.978-20.508-20.506zM884.798 64.064c0.024-0.028 0.046-0.056 0.070-0.084l10.634-12.778 9.162 9.162-107.712 120.916-5.306-5.306 93.152-111.91zM551.056 546.036l-75.332-75.332 295.010-272.766 39.37 39.37c0.158 0.188 0.302 0.382 0.468 0.564 0.464 0.506 0.966 0.958 1.482 1.386l15.146 15.146-276.144 291.632zM849.286 233.614l-5.62-5.62 118.988-109.642 11.402 11.402-124.77 103.86zM966.518 215.096l-21.624-21.624 24.98-20.792 19.53 19.532-22.886 22.884z"></path>
<path d="M982.746 550.952c-3.556-2.88-8.22-4.002-12.688-3.048l-211.438 44.932c-7 1.488-12.008 7.67-12.008 14.826v63.15c0 8.374 6.784 15.158 15.158 15.158s15.158-6.784 15.158-15.158v-50.876l181.122-38.488v153.422c-12.522-7.556-28.074-12.040-44.908-12.040-41.306 0-74.912 26.99-74.912 60.164s33.606 60.164 74.912 60.164c38.95 0 71.040-23.998 74.578-54.55 0.416-1.386 0.646-2.854 0.646-4.376v-221.5c0-4.572-2.066-8.902-5.62-11.78zM913.142 812.844c-24.174 0-44.596-13.668-44.596-29.848s20.422-29.848 44.596-29.848c24.174 0 44.598 13.668 44.598 29.848s-20.424 29.848-44.598 29.848z"></path>
<path d="M776.926 730.3c0-8.372-6.784-15.158-15.158-15.158s-15.158 6.784-15.158 15.158v70.062c-12.468-7.444-27.902-11.856-44.596-11.856-41.306 0-74.914 26.99-74.914 60.164s33.606 60.166 74.914 60.166c41.308 0 74.912-26.99 74.912-60.166 0-0.038-0.004-0.076-0.004-0.118 0-0.024 0.004-0.048 0.004-0.072v-118.18zM702.014 878.516c-24.174 0-44.598-13.668-44.598-29.85 0-16.178 20.424-29.848 44.598-29.848s44.596 13.668 44.596 29.848c0 16.184-20.422 29.85-44.596 29.85z"></path>
<path d="M424.074 29.79c-3.43-2.882-7.962-4.102-12.37-3.322l-95.766 16.806c-8.244 1.448-13.758 9.306-12.308 17.552 1.448 8.246 9.3 13.756 17.552 12.308l77.986-13.684v154.092c-12.522-7.556-28.072-12.040-44.906-12.040-41.308 0-74.914 26.99-74.914 60.164s33.606 60.162 74.914 60.162c38.948 0 71.038-23.998 74.576-54.55 0.416-1.386 0.646-2.854 0.646-4.376v-221.506c0.002-4.478-1.978-8.726-5.41-11.606zM354.262 291.51c-24.174 0-44.598-13.668-44.598-29.848s20.424-29.848 44.598-29.848c24.174 0 44.596 13.668 44.596 29.848s-20.422 29.848-44.596 29.848z"></path>
<path d="M258.138 74.588c-1.738-8.19-9.79-13.424-17.978-11.676l-40.422 8.59c-7 1.488-12.008 7.67-12.008 14.826v192.698c-12.468-7.444-27.902-11.856-44.596-11.856-41.308 0-74.914 26.99-74.914 60.164s33.604 60.16 74.914 60.16c41.308 0 74.912-26.99 74.912-60.164 0-0.038-0.004-0.076-0.004-0.118 0-0.024 0.004-0.048 0.004-0.072v-228.536l28.414-6.036c8.192-1.74 13.42-9.79 11.678-17.98zM143.136 357.182c-24.174 0-44.598-13.668-44.598-29.848s20.424-29.848 44.598-29.848c24.174 0 44.596 13.668 44.596 29.848s-20.422 29.848-44.596 29.848z"></path>
</svg>
