<!-- Generated by IcoMoon.io -->
<svg version="1.1" xmlns="http://www.w3.org/2000/svg" width="832" height="1024" viewBox="0 0 832 1024">
<title></title>
<g id="icomoon-ignore">
</g>
<path d="M751.918 178.329c-74.898-114.131-198.54-178.329-337.637-178.329-137.908 0-261.55 64.199-338.826 178.329-77.276 111.753-95.109 254.416-47.554 379.247 13.077 33.288 33.288 67.765 59.443 98.676l300.782 354.281c7.133 7.133 14.266 11.889 24.966 11.889s17.833-4.755 24.966-11.889l301.971-354.281c26.155-30.91 47.554-64.199 59.443-98.676 47.554-124.83 29.722-267.494-47.554-379.247zM414.281 599.186c-102.242 0-186.651-84.409-186.651-186.651s84.409-186.651 186.651-186.651c102.242 0 186.651 84.409 186.651 186.651s-83.22 186.651-186.651 186.651z"></path>
</svg>
