<?xml version="1.0" encoding="UTF-8"?>
<svg width="13px" height="16px" viewBox="0 0 13 16" version="1.1" xmlns="http://www.w3.org/2000/svg" xmlns:xlink="http://www.w3.org/1999/xlink">
    <!-- Generator: Sketch 48.2 (47327) - http://www.bohemiancoding.com/sketch -->
    <title>location</title>
    <desc>Created with Sketch.</desc>
    <defs></defs>
    <g id="HOG-1920/1140" stroke="none" stroke-width="1" fill="none" fill-rule="evenodd" transform="translate(-435.000000, -1371.000000)">
        <g id="Program" transform="translate(0.000000, 866.000000)" fill="#EE7D00" fill-rule="nonzero">
            <g id="li-2-Open" transform="translate(389.000000, 456.000000)">
                <g id="Map-Button" transform="translate(46.000000, 44.000000)">
                    <g id="location" transform="translate(0.000000, 5.000000)">
                        <path d="M11.7487166,2.78639456 C10.5784308,1.00310204 8.64653061,0 6.47314286,0 C4.31833107,0 2.38643084,1.00310204 1.1789932,2.78639456 C-0.0284444444,4.53253515 -0.3070839,6.76165079 0.435954649,8.71212698 C0.640290249,9.23225397 0.956081633,9.77095692 1.36475283,10.253932 L6.06447166,15.7895692 C6.17592744,15.9010249 6.28738322,15.9753288 6.45456689,15.9753288 C6.62175057,15.9753288 6.73320635,15.9010249 6.84466213,15.7895692 L11.5629569,10.253932 C11.9716281,9.77095692 12.3059955,9.25082993 12.4917551,8.71212698 C13.2347937,6.76165079 12.9561542,4.53253515 11.7487166,2.78639456 Z M6.47314286,9.36228571 C4.87560998,9.36228571 3.55671655,8.04339229 3.55671655,6.44585941 C3.55671655,4.84832653 4.87560998,3.52943311 6.47314286,3.52943311 C8.07067574,3.52943311 9.38956916,4.84832653 9.38956916,6.44585941 C9.38956916,8.04339229 8.0892517,9.36228571 6.47314286,9.36228571 Z" id="Shape"></path>
                    </g>
                </g>
            </g>
        </g>
    </g>
</svg>