<!-- Generated by IcoMoon.io -->
<svg version="1.1" xmlns="http://www.w3.org/2000/svg" width="1024" height="1024" viewBox="0 0 1024 1024">
<title></title>
<g id="icomoon-ignore">
</g>
<path d="M1016.17 544.83l-45.512-24.766-24.884-45.274c-2.634-4.796-7.672-7.776-13.144-7.776-5.47 0-10.51 2.98-13.144 7.774l-24.886 45.276-45.512 24.766c-4.826 2.626-7.83 7.682-7.83 13.176s3.004 10.548 7.83 13.176l45.512 24.766 24.886 45.274c2.634 4.794 7.674 7.774 13.144 7.774 5.472 0 10.51-2.98 13.144-7.776l24.884-45.274 45.512-24.766c4.826-2.626 7.83-7.682 7.83-13.176s-3.004-10.548-7.83-13.174zM952.458 571.696c-2.52 1.372-4.594 3.436-5.974 5.952l-13.856 25.208-13.858-25.208c-1.38-2.514-3.456-4.58-5.974-5.95l-25.16-13.692 25.16-13.692c2.52-1.372 4.594-3.436 5.974-5.95l13.858-25.208 13.856 25.208c1.38 2.514 3.456 4.58 5.974 5.952l25.16 13.692-25.16 13.688z"></path>
<path d="M821.162 741.226l-58.124-31.63-30.674-55.804c-0.272-17.226-1.758-34.472-4.426-51.346-1.294-8.18-8.968-13.776-17.16-12.472-8.182 1.294-13.766 8.976-12.472 17.16 1.95 12.314 3.208 24.846 3.77 37.416h-133.646c-0.108-9.47-0.318-18.93-0.628-28.268-0.276-8.28-7.216-14.71-15.49-14.494-8.28 0.276-14.77 7.21-14.494 15.492 0.3 9.008 0.504 18.134 0.612 27.272h-157.222v-156.288c8.838 0.102 17.674 0.292 26.412 0.572 0.162 0.004 0.326 0.008 0.488 0.008 8.060 0 14.722-6.404 14.982-14.52 0.266-8.28-6.232-15.208-14.514-15.472-9.054-0.29-18.212-0.486-27.37-0.59v-132.84c32.474 1.414 64.298 7.426 94.846 17.928l15.432 32.302-73.582 26.038c-9.822 3.476-16.17 12.444-16.17 22.846s6.346 19.372 16.17 22.848l73.582 26.036-33.502 70.126c-4.472 9.364-2.628 20.166 4.698 27.522 7.356 7.384 18.196 9.276 27.626 4.816l70.632-33.408 26.186 73.262c3.494 9.778 12.47 16.096 22.872 16.096 0.002 0 0.002 0 0.004 0 10.398 0 19.378-6.318 22.876-16.096l26.184-73.264 70.634 33.41c9.428 4.458 20.268 2.566 27.624-4.818 7.326-7.356 9.17-18.16 4.698-27.522l-33.5-70.128 73.58-26.036c9.824-3.476 16.172-12.446 16.172-22.848s-6.35-19.372-16.172-22.846l-73.58-26.036 33.5-70.126c4.472-9.364 2.628-20.168-4.698-27.524-7.356-7.382-18.192-9.274-27.626-4.816l-70.632 33.408-26.184-73.266c-3.498-9.778-12.476-16.094-22.878-16.094-10.4 0-19.376 6.32-22.872 16.096l-26.186 73.264-70.632-33.408c-9.426-4.458-20.268-2.57-27.626 4.816-7.326 7.356-9.17 18.16-4.698 27.522l0.606 1.266c-25.228-6.53-51.116-10.344-77.38-11.396v-207.15h111.824c19.030 0 34.512-15.438 34.512-34.414v-19.414c-0.004-18.976-15.488-34.414-34.516-34.414h-152.080c-8.286 0-15 6.716-15 15s6.714 15 15 15h152.080c2.488 0 4.512 1.98 4.512 4.414v19.414c0 2.434-2.024 4.414-4.512 4.414h-253.65c-2.488 0-4.512-1.98-4.512-4.414v-19.414c0-2.434 2.024-4.414 4.512-4.414h46.286c8.286 0 15-6.716 15-15s-6.714-15-15-15h-46.286c-19.030 0-34.512 15.438-34.512 34.414v19.414c0 18.976 15.482 34.414 34.512 34.414h111.824v207.154c-46.54 1.876-90.874 12.436-131.396 30.094-0.954 0.312-1.874 0.716-2.744 1.208-82.204 36.626-148.46 102.552-185.278 184.356-0.502 0.876-0.914 1.802-1.23 2.762-19.65 44.654-30.556 93.948-30.556 145.732s10.906 101.078 30.556 145.73c0.316 0.96 0.728 1.886 1.23 2.764 36.816 81.802 103.070 147.728 185.274 184.352 0.876 0.494 1.794 0.9 2.752 1.212 44.86 19.548 94.372 30.394 146.392 30.394 63.626 0 126.296-16.494 181.244-47.698 53.284-30.26 98.476-73.74 130.692-125.74 4.362-7.042 2.19-16.288-4.852-20.65-7.040-4.362-16.286-2.192-20.652 4.852-30.47 49.184-71.964 88.592-120.306 115.9 8.96-32.296 16.362-67.138 22.082-103.718 23.152-3.58 45.624-7.83 67.208-12.724 8.078-1.834 13.142-9.868 11.31-17.948-1.834-8.078-9.86-13.14-17.948-11.31-18.116 4.11-36.878 7.75-56.168 10.906 5.78-45.378 9.050-92.954 9.612-141.322h124.018l-19.266 35.046-58.124 31.63c-4.826 2.626-7.83 7.682-7.83 13.176s3.004 10.548 7.83 13.174l58.124 31.632 31.786 57.824c2.634 4.794 7.672 7.774 13.144 7.774s10.51-2.98 13.144-7.774l31.786-57.824 58.124-31.632c4.826-2.626 7.83-7.68 7.83-13.174s-3.004-10.548-7.83-13.174zM553.784 336.398c6.192 2.93 13.376 3.11 19.712 0.484 6.322-2.618 11.266-7.81 13.564-14.244l22.936-64.17 22.934 64.17c2.298 6.432 7.242 11.626 13.562 14.244 6.334 2.626 13.522 2.45 19.714-0.482l61.762-29.212-29.298 61.334c-2.956 6.184-3.146 13.362-0.526 19.692 2.626 6.344 7.85 11.296 14.33 13.588l64.25 22.734-64.25 22.734c-6.482 2.294-11.706 7.248-14.332 13.592-2.62 6.332-2.428 13.508 0.526 19.688l29.3 61.336-61.764-29.214c-6.196-2.93-13.378-3.106-19.714-0.48-6.318 2.62-11.262 7.81-13.56 14.244l-22.934 64.17-22.936-64.17c-2.298-6.434-7.242-11.626-13.562-14.244-2.978-1.234-6.146-1.848-9.31-1.848-3.562 0-7.122 0.78-10.402 2.332l-61.764 29.212 29.302-61.338c2.954-6.182 3.142-13.36 0.522-19.688-2.626-6.342-7.85-11.296-14.33-13.588l-64.25-22.734 64.248-22.734c6.48-2.292 11.706-7.244 14.332-13.586 2.622-6.33 2.432-13.508-0.522-19.694l-29.302-61.336 61.762 29.208zM199.946 368.924c-8.904 32.168-16.258 66.854-21.954 103.264-36.62 5.668-71.524 12.996-103.876 21.864 29.922-52.054 73.492-95.382 125.83-125.128zM55.962 530.668c35.744-11.3 75.4-20.502 117.628-27.416-5.776 45.368-9.046 92.942-9.608 141.296h-133.648c1.792-40.192 10.75-78.568 25.628-113.88zM74.118 825.044c32.34 8.864 67.214 16.188 103.82 21.854 5.73 36.622 13.096 71.196 21.992 103.264-52.326-29.744-95.896-73.072-125.812-125.118zM351.206 993.674c-40.46-1.776-79.078-10.698-114.622-25.528-11.32-35.434-20.566-74.658-27.558-116.884 45.642 5.758 93.526 9.020 142.18 9.576v132.836zM351.206 830.836c-108.292-1.264-212.308-16.188-295.242-42.406-14.878-35.312-23.836-73.69-25.628-113.88h133.648c0.404 35.226 2.228 70.182 5.438 104.116 0.78 8.248 8.086 14.292 16.346 13.52 8.248-0.78 14.3-8.098 13.522-16.346-3.124-33.002-4.9-67.006-5.302-101.29h111.196c8.286 0 15-6.716 15-15s-6.714-15-15-15h-111.198c0.594-50.112 4.156-99.294 10.45-145.878 46.866-6.27 96.354-9.82 146.77-10.408v342.572zM351.208 458.258c-48.648 0.556-96.506 3.814-142.142 9.572 6.944-41.954 16.182-81.366 27.52-116.88 35.542-14.83 74.16-23.75 114.622-25.526v132.834zM495.718 968.486c-35.82 14.802-74.454 23.458-114.514 25.192v-132.838c48.544-0.554 96.432-3.786 142.136-9.54-6.964 42.072-16.236 81.588-27.622 117.186zM527.972 820.45c-46.968 6.278-96.47 9.802-146.768 10.386v-156.288h157.222c-0.594 50.116-4.158 99.31-10.454 145.902zM744.84 774.956c-2.52 1.372-4.594 3.436-5.974 5.95l-20.756 37.76-20.756-37.76c-1.38-2.514-3.456-4.578-5.974-5.95l-37.772-20.556 37.772-20.554c2.52-1.372 4.594-3.436 5.974-5.95l20.756-37.76 20.756 37.76c1.38 2.514 3.456 4.58 5.974 5.95l37.772 20.554-37.772 20.556z"></path>
</svg>
