<!-- Generated by IcoMoon.io -->
<svg version="1.1" xmlns="http://www.w3.org/2000/svg" width="755" height="1024" viewBox="0 0 755 1024">
<title></title>
<g id="icomoon-ignore">
</g>
<path d="M744.114 431.3c-66.22-41.154-138.042-70.496-213.88-87.474 5.824-9.772 9.17-21.182 9.17-33.358 0-19.5-8.584-37.036-22.172-49.022 13.588-11.986 22.172-29.522 22.172-49.022s-8.584-37.036-22.172-49.022c13.588-11.986 22.172-29.522 22.172-49.022 0-30.994-21.69-57.020-50.684-63.7-6.68-28.994-32.704-50.68-63.698-50.68-19.502 0-37.036 8.584-49.022 22.172-11.986-13.588-29.52-22.172-49.022-22.172-30.994 0-57.020 21.688-63.7 50.684-28.994 6.68-50.684 32.704-50.684 63.7 0 19.5 8.584 37.036 22.172 49.022-13.588 11.986-22.172 29.522-22.172 49.022s8.584 37.036 22.172 49.022c-13.588 11.986-22.172 29.522-22.172 49.022 0 12.176 3.348 23.586 9.17 33.358-75.84 16.976-147.66 46.322-213.88 87.474-5.298 3.294-8.262 9.316-7.632 15.526l21.654 213.898c0.002 0.024 11.026 108.922 11.026 108.922 0.846 8.342 7.87 14.694 16.258 14.694h50.744c8.75 63.486 39.23 121.908 86.852 165.824 51.636 47.612 118.83 73.832 189.214 73.832s137.578-26.22 189.21-73.834c47.622-43.918 78.102-102.342 86.852-165.824h50.746c8.388 0 15.412-6.352 16.258-14.694l11.024-108.902c0.002-0.024 21.656-213.92 21.656-213.92 0.63-6.21-2.332-12.232-7.632-15.526zM277.958 343.148c-18.020 0-32.68-14.66-32.68-32.68s14.66-32.68 32.68-32.68c9.024 0 16.34-7.314 16.34-16.34s-7.316-16.34-16.34-16.34c-18.020 0-32.68-14.66-32.68-32.68s14.66-32.68 32.68-32.68c9.024 0 16.34-7.314 16.34-16.34s-7.316-16.34-16.34-16.34c-18.020 0-32.68-14.66-32.68-32.68s14.66-32.68 32.68-32.68c9.024 0 16.34-7.314 16.34-16.34 0-18.020 14.66-32.68 32.68-32.68s32.68 14.66 32.68 32.68c0 9.026 7.316 16.34 16.34 16.34s16.34-7.314 16.34-16.34c0-18.020 14.66-32.68 32.68-32.68s32.68 14.66 32.68 32.68c0 9.026 7.316 16.34 16.34 16.34 18.020 0 32.68 14.66 32.68 32.68s-14.66 32.68-32.68 32.68c-9.024 0-16.34 7.314-16.34 16.34s7.316 16.34 16.34 16.34c18.020 0 32.68 14.66 32.68 32.68s-14.66 32.68-32.68 32.68c-9.024 0-16.34 7.314-16.34 16.34s7.316 16.34 16.34 16.34c18.020 0 32.68 14.66 32.68 32.68s-14.66 32.68-32.68 32.68c-9.024 0-16.34 7.314-16.34 16.34s7.316 16.34 16.34 16.34c18.020 0 32.68 14.66 32.68 32.68s-14.66 32.68-32.68 32.68c-9.024 0-16.34 7.314-16.34 16.34 0 7.878-2.804 15.232-7.604 20.97-11.004-26.784-32.978-46.634-59.344-52.108 1.006-2.122 1.586-4.484 1.586-6.99v-288.676c0-9.026-7.316-16.34-16.34-16.34s-16.34 7.314-16.34 16.34v288.68c0 2.504 0.58 4.868 1.586 6.99-26.366 5.476-48.34 25.326-59.344 52.108-4.8-5.738-7.604-13.092-7.604-20.97 0-9.026-7.316-16.34-16.34-16.34-18.020 0-32.68-14.66-32.68-32.68s14.66-32.68 32.68-32.68c9.024 0 16.34-7.314 16.34-16.34s-7.312-16.344-16.336-16.344zM425.022 517.446c0 33.036-21.99 59.914-49.022 59.914s-49.022-26.878-49.022-59.914c0-3.88 0.314-7.67 0.894-11.346 0.006-0.054 0.018-0.11 0.024-0.164 4.404-27.546 24.294-48.404 48.104-48.404s43.7 20.86 48.104 48.406c0.006 0.052 0.018 0.104 0.024 0.156 0.58 3.68 0.894 7.47 0.894 11.352zM63.962 751.66l-7.72-76.256h76.088l7.72 76.256h-25.162c-0.026 0-50.926 0-50.926 0zM376 991.32c-121.032 0-224.496-89.57-243.034-206.978h486.068c-18.538 117.408-122.002 206.978-243.034 206.978zM688.038 751.66h-50.884c-0.052 0-25.204 0-25.204 0l7.72-76.256h76.088l-7.72 76.256zM699.068 642.724h-76.088l0.386-3.8c0.908-8.978-5.632-16.996-14.612-17.904-8.992-0.908-16.994 5.634-17.902 14.61l-0.718 7.094h-377.674c-9.024 0-16.34 7.314-16.34 16.34s7.316 16.34 16.34 16.34h374.362l-7.72 76.256h-406.204l-9.542-94.252c-0.002-0.030-2.204-21.778-2.204-21.778-0.908-8.978-8.938-15.552-17.902-14.61-8.978 0.908-15.522 8.926-14.612 17.904l0.386 3.8h-76.092l-19.13-188.96c58.146-34.922 120.71-60.39 186.52-76.042-4.924 9.182-7.728 19.662-7.728 30.79 0 30.992 21.684 57.016 50.674 63.698 4.052 17.694 15.32 32.914 31.098 41.97-0.032 1.088-0.074 2.172-0.074 3.268 0 51.058 36.65 92.596 81.702 92.596s81.702-41.538 81.702-92.596c0-1.096-0.040-2.18-0.074-3.268 15.78-9.056 27.046-24.276 31.098-41.97 28.994-6.682 50.68-32.704 50.68-63.698 0-11.126-2.804-21.608-7.728-30.79 65.81 15.654 128.374 41.12 186.52 76.042l-19.124 188.96z"></path>
</svg>
