<?xml version="1.0" encoding="UTF-8"?>
<svg width="14px" height="13px" viewBox="0 0 14 13" version="1.1" xmlns="http://www.w3.org/2000/svg" xmlns:xlink="http://www.w3.org/1999/xlink">
    <!-- Generator: Sketch 48.2 (47327) - http://www.bohemiancoding.com/sketch -->
    <title>star</title>
    <desc>Created with Sketch.</desc>
    <defs></defs>
    <g id="HOG-1920/1140" stroke="none" stroke-width="1" fill="none" fill-rule="evenodd" transform="translate(-683.000000, -3334.000000)">
        <g id="Hotels" transform="translate(0.000000, 3068.000000)" fill="#FFFFFF" fill-rule="nonzero">
            <g id="Li-1" transform="translate(389.000000, 258.000000)">
                <g id="Stars" transform="translate(276.000000, 0.000000)">
                    <path d="M25.1163267,8.21346298 L26.8449582,12.3048367 L31.2704783,12.685024 C31.5774185,12.7115325 31.7022874,13.0945102 31.4692918,13.2961141 L28.1124819,16.2043728 L29.1184087,20.5308348 C29.1881678,20.8314967 28.8623927,21.0679802 28.5987031,20.9082318 L24.7954346,18.6145512 L20.9921662,20.9082318 C20.727779,21.0672826 20.4027014,20.8307991 20.4724605,20.5308348 L21.4783874,16.2043728 L18.1208798,13.2954165 C17.8878843,13.0938126 18.0120556,12.7108349 18.3196934,12.6843264 L22.7452134,12.3041391 L24.473845,8.21346298 C24.5938307,7.92884567 24.996341,7.92884567 25.1163267,8.21346298 Z" id="star"></path>
                </g>
            </g>
        </g>
    </g>
</svg>