<?xml version="1.0" encoding="UTF-8"?>
<svg width="17px" height="16px" viewBox="0 0 17 16" version="1.1" xmlns="http://www.w3.org/2000/svg" xmlns:xlink="http://www.w3.org/1999/xlink">
    <!-- Generator: Sketch 48.2 (47327) - http://www.bohemiancoding.com/sketch -->
    <title>user-silhouette</title>
    <desc>Created with Sketch.</desc>
    <defs></defs>
    <g id="HOG-375" stroke="none" stroke-width="1" fill="none" fill-rule="evenodd" transform="translate(-307.000000, -2531.000000)">
        <g id="Exurse" transform="translate(-198.000000, 2000.000000)" fill="#FFFFFF" fill-rule="nonzero">
            <g id="li-2-Open" transform="translate(213.000000, 501.000000)">
                <g id="user-silhouette" transform="translate(292.156069, 30.000000)">
                    <path d="M8.05852892,8.47846683 C10.0444777,8.47846683 11.654592,6.58854054 11.654592,4.25721867 C11.654592,1.0243145 10.0445561,0.036009828 8.05852892,0.036009828 C6.07242334,0.036009828 4.46246581,1.0243145 4.46246581,4.25721867 C4.46250501,6.58854054 6.07246254,8.47846683 8.05852892,8.47846683 Z" id="Shape"></path>
                    <path d="M15.9993842,14.6915774 L14.1851245,10.5927862 C14.1021414,10.4052285 13.9563625,10.2496708 13.774913,10.1549287 L10.9592905,8.68497297 C10.8972002,8.65261916 10.8220176,8.65890909 10.766199,8.70128747 C9.96984392,9.30535627 9.03351124,9.62464865 8.05852892,9.62464865 C7.08338981,9.62464865 6.14713553,9.30535627 5.35078042,8.70128747 C5.29480507,8.65890909 5.2196225,8.65261916 5.1575322,8.68497297 L2.34210564,10.1549287 C2.16057775,10.2496708 2.01495562,10.4051499 1.93189416,10.5927862 L0.117634461,14.6915774 C-0.00744769993,14.9741523 0.0181880672,15.2974545 0.186231697,15.5566388 C0.354196929,15.8157838 0.638463876,15.9704373 0.946681058,15.9704373 L15.1702592,15.9704373 C15.4784764,15.9704373 15.7628217,15.8157052 15.930787,15.5565995 C16.0987522,15.2974545 16.1244663,14.9740344 15.9993842,14.6915774 Z" id="Shape"></path>
                </g>
            </g>
        </g>
    </g>
</svg>