<!-- Generated by IcoMoon.io -->
<svg version="1.1" xmlns="http://www.w3.org/2000/svg" width="1088" height="1024" viewBox="0 0 1088 1024">
<title></title>
<g id="icomoon-ignore">
</g>
<path d="M525.734 542.622c127.101 0 230.148-120.955 230.148-270.16 0-206.906-103.042-270.157-230.148-270.157-127.111 0-230.148 63.251-230.148 270.157 0.003 149.205 103.040 270.16 230.148 270.16z"></path>
<path d="M1033.949 940.261l-116.113-262.323c-5.311-12.004-14.641-21.959-26.254-28.023l-180.2-94.077c-3.974-2.071-8.785-1.668-12.358 1.044-50.967 38.66-110.892 59.095-173.291 59.095-62.409 0-122.329-20.435-173.296-59.095-3.582-2.712-8.394-3.115-12.368-1.044l-180.187 94.077c-11.618 6.063-20.938 16.014-26.254 28.023l-116.113 262.323c-8.005 18.085-6.365 38.776 4.39 55.364 10.75 16.585 28.943 26.483 48.669 26.483h910.309c19.726 0 37.924-9.903 48.674-26.486 10.75-16.585 12.395-37.284 4.39-55.361z"></path>
</svg>
