<!-- Generated by IcoMoon.io -->
<svg version="1.1" xmlns="http://www.w3.org/2000/svg" width="1609" height="1024" viewBox="0 0 1609 1024">
<title></title>
<g id="icomoon-ignore">
</g>
<path d="M1574.842 485.775c-13.94-19.069-346.078-466.914-770.28-466.914s-756.355 447.845-770.28 466.895c-13.202 18.091-13.202 42.627 0 60.718 13.925 19.069 346.078 466.914 770.28 466.914s756.34-447.848 770.28-466.898c13.221-18.088 13.221-42.642 0-60.715zM804.562 910.506c-312.469 0-583.101-297.243-663.214-394.417 80.009-97.259 350.074-394.347 663.214-394.347 312.454 0 583.067 297.192 663.214 394.417-80.009 97.256-350.074 394.347-663.214 394.347z"></path>
<path d="M804.562 207.478c-170.185 0-308.648 138.462-308.648 308.648s138.462 308.648 308.648 308.648c170.185 0 308.648-138.462 308.648-308.648s-138.462-308.648-308.648-308.648zM804.562 721.889c-113.463 0-205.763-92.303-205.763-205.763s92.303-205.763 205.763-205.763c113.46 0 205.763 92.303 205.763 205.763s-92.3 205.763-205.763 205.763z"></path>
</svg>
