<?xml version="1.0" encoding="UTF-8"?><!DOCTYPE svg PUBLIC "-//W3C//DTD SVG 1.1//EN" "http://www.w3.org/Graphics/SVG/1.1/DTD/svg11.dtd"><svg xmlns="http://www.w3.org/2000/svg"><symbol id="arrow" viewBox="0 0 683 1024"><title/><path d="M122.356 0L0 119.467 402.026 512 0 904.533 122.356 1024l524.381-512z"/></symbol><symbol id="clock" viewBox="0 0 1024 1024"><title/><path d="M494.933 15.929c-265.956 0-483.556 217.6-483.556 483.556s217.6 483.556 483.556 483.556 483.556-217.6 483.556-483.556-217.6-483.556-483.556-483.556zm0 870.4c-212.764 0-386.844-174.08-386.844-386.844s174.08-386.844 386.844-386.844c212.764 0 386.844 174.08 386.844 386.844s-174.08 386.844-386.844 386.844z"/><path d="M519.111 257.707h-72.533V547.84l251.449 154.738 38.684-62.862-217.6-130.56z"/></symbol><symbol id="close" viewBox="0 0 1024 1024"><title/><path d="M1023.941 79.314L944.79 0 512.016 432.774 79.278 0 .055 79.278l432.738 432.72L.055 944.718l79.223 79.278 432.738-432.813 432.774 432.813 79.151-79.314-432.683-432.683z"/></symbol><symbol id="external-link" viewBox="0 0 1024 1024"><title/><path d="M958.881 0H595.609C559.7 0 530.49 29.214 530.49 65.119s29.211 65.119 65.119 65.119h206.063L457.935 473.971c-12.306 12.298-19.078 28.649-19.078 46.049s6.769 33.747 19.071 46.034c12.302 12.313 28.649 19.089 46.049 19.089 17.392 0 33.747-6.772 46.052-19.078l343.733-343.737v206.063c0 35.905 29.214 65.119 65.119 65.119S1024 464.296 1024 428.391V65.119C1024 29.214 994.786 0 958.881 0z"/><path d="M700.144 919.572H104.428V323.856h448.034L656.89 219.428H52.214C23.378 219.428 0 242.806 0 271.642v700.144C0 1000.622 23.378 1024 52.214 1024h700.144c28.836 0 52.214-23.378 52.214-52.214V367.11L700.144 471.538v448.034z"/></symbol><symbol id="fireworks" viewBox="0 0 916 1024"><title/><path d="M116.736 561.441c-3.164-7.639-11.921-11.266-19.56-8.102l-35.864 14.855c-7.639 3.164-11.266 11.921-8.102 19.56 2.387 5.765 7.962 9.246 13.837 9.246 1.91 0 3.85-.367 5.723-1.144l35.864-14.855c7.637-3.164 11.266-11.923 8.102-19.56zM78.646 198.069l12.35 13.526a26.03 26.03 0 0 0 19.206 8.461c1.918 0 3.85-.214 5.763-.651a26.026 26.026 0 0 0 19.107-17.871l5.256-17.544 18.274-1.222c9.318-.623 17.624-6.236 21.676-14.649s3.262-18.408-2.06-26.081l-10.438-15.051 10.438-15.049c5.322-7.673 6.112-17.667 2.06-26.081S167.92 71.83 158.602 71.208l-18.274-1.222-5.258-17.544a26.025 26.025 0 0 0-19.107-17.873 26.013 26.013 0 0 0-24.969 7.813L78.646 55.91l-16.995-6.829a26.026 26.026 0 0 0-25.885 3.797 26.021 26.021 0 0 0-9.46 24.392l2.876 18.089-15.935 9.028A26.025 26.025 0 0 0 .075 126.993a26.028 26.028 0 0 0 13.172 22.604l15.935 9.028-2.876 18.089a26.026 26.026 0 0 0 9.462 24.392 26.03 26.03 0 0 0 25.883 3.795l16.995-6.833zm-32.31-64.141l-12.244-6.938 12.246-6.938c9.378-5.316 14.542-16.039 12.849-26.684l-2.21-13.899 13.06 5.248c10.002 4.018 21.606 1.369 28.874-6.591l9.487-10.394 4.04 13.482c3.094 10.326 12.4 17.747 23.155 18.464l14.041.938-8.022 11.565c-6.144 8.859-6.144 20.759 0 29.616l8.02 11.565-14.041.938c-10.755.719-20.061 8.138-23.157 18.464l-4.038 13.482-9.487-10.392c-5.006-5.485-12.068-8.449-19.25-8.449-3.244 0-6.513.605-9.625 1.856l-13.058 5.248 2.21-13.897c1.693-10.647-3.471-21.37-12.849-26.684zM332.277 418.473c0-8.268-6.703-14.971-14.971-14.971h-35.994c-8.268 0-14.971 6.703-14.971 14.971s6.703 14.971 14.971 14.971h35.994c8.268 0 14.971-6.703 14.971-14.971zM462.149 294.754h.096c8.268-.052 14.929-6.795 14.877-15.063l-.259-41.888c-.05-8.236-6.745-14.879-14.969-14.879h-.096c-8.268.052-14.929 6.795-14.877 15.063l.259 41.888c.052 8.238 6.743 14.879 14.969 14.879zM550.678 204.121a14.917 14.917 0 0 0 5.723 1.144c5.875 0 11.448-3.481 13.837-9.246l33.035-79.754c3.166-7.639-.461-16.396-8.102-19.56-7.635-3.162-16.394.463-19.56 8.102l-33.035 79.754c-3.164 7.637.463 16.396 8.102 19.56zM609.963 60.999a14.924 14.924 0 0 0 5.723 1.144c5.875 0 11.448-3.481 13.837-9.246l13.336-32.195c3.166-7.639-.461-16.396-8.102-19.56-7.635-3.16-16.396.463-19.56 8.102l-13.336 32.195c-3.166 7.639.461 16.396 8.102 19.56zM353.543 196.019c2.387 5.765 7.962 9.246 13.837 9.246 1.91 0 3.85-.367 5.723-1.144 7.639-3.164 11.266-11.923 8.102-19.56l-40.557-97.915c-3.166-7.639-11.923-11.264-19.56-8.102-7.639 3.164-11.266 11.923-8.102 19.56l40.557 97.915zM578.915 280.277l-17.552 17.811c-5.803 5.888-5.735 15.368.154 21.171a14.927 14.927 0 0 0 10.509 4.308c3.868 0 7.735-1.491 10.663-4.463l17.552-17.811c5.803-5.888 5.735-15.368-.154-21.171-5.892-5.801-15.37-5.733-21.173.156zM227.979 499.157l-78.473 32.505c-7.639 3.164-11.266 11.923-8.102 19.56 2.387 5.765 7.962 9.246 13.837 9.246 1.91 0 3.85-.367 5.723-1.144l78.473-32.505c7.639-3.164 11.266-11.923 8.102-19.56-3.162-7.637-11.919-11.262-19.56-8.102zM353.53 331.023a14.924 14.924 0 0 0 10.553 4.352c3.846 0 7.693-1.473 10.619-4.417 5.829-5.865 5.799-15.342-.066-21.171l-41.559-41.299c-5.865-5.829-15.344-5.799-21.171.066-5.829 5.865-5.799 15.344.066 21.171l41.557 41.299zM125.513 279.139c-3.164 7.639.463 16.396 8.102 19.56l94.366 39.088a14.932 14.932 0 0 0 5.723 1.144c5.875 0 11.45-3.481 13.837-9.246 3.164-7.639-.463-16.396-8.102-19.56l-94.364-39.088c-7.645-3.162-16.398.465-19.562 8.102zM240.412 681.984l-10.955-6.208 1.978-12.436c1.341-8.444-1.976-17.001-8.661-22.33s-15.763-6.659-23.698-3.473l-11.683 4.695-8.491-9.3a23.815 23.815 0 0 0-22.857-7.152 23.828 23.828 0 0 0-17.494 16.362l-3.615 12.062-12.561.84a23.828 23.828 0 0 0-19.845 13.41 23.824 23.824 0 0 0 1.886 23.877l7.176 10.346-7.176 10.348a23.826 23.826 0 0 0-1.886 23.875 23.826 23.826 0 0 0 19.843 13.414l12.561.838 3.615 12.062a23.822 23.822 0 0 0 17.494 16.362c1.749.399 3.519.595 5.274.595a23.845 23.845 0 0 0 17.584-7.745l8.489-9.3 11.687 4.695a23.824 23.824 0 0 0 23.696-3.475 23.826 23.826 0 0 0 8.661-22.33l-1.978-12.436 10.955-6.208a23.825 23.825 0 0 0 12.06-20.694c0-8.549-4.621-16.48-12.058-20.696zm-29.43 23.652c-8.587 4.866-13.316 14.683-11.765 24.428l.942 5.924-5.565-2.236c-9.16-3.681-19.781-1.256-26.434 6.032l-4.044 4.429-1.721-5.745c-2.832-9.452-11.352-16.246-21.199-16.905l-5.982-.399 3.417-4.926c5.627-8.11 5.627-19.007 0-27.117l-3.417-4.926 5.984-.399c9.847-.659 18.364-7.453 21.197-16.905l1.721-5.745 4.044 4.431c6.653 7.286 17.274 9.709 26.434 6.032l5.565-2.238-.942 5.92c-1.551 9.747 3.176 19.566 11.763 24.43l5.218 2.956-5.216 2.956zM657.44 418.473c0-8.268-6.701-14.971-14.971-14.971H600.84c-8.27 0-14.971 6.703-14.971 14.971s6.701 14.971 14.971 14.971h41.629c8.268 0 14.971-6.703 14.971-14.971zM570.849 506.002c-5.819-5.873-15.298-5.912-21.173-.094-5.871 5.821-5.912 15.3-.092 21.171l29.361 29.62a14.925 14.925 0 0 0 10.631 4.431c3.809 0 7.619-1.445 10.539-4.338 5.871-5.821 5.912-15.3.092-21.173l-29.359-29.618zM786.406 765.391l-10.955-6.208 1.976-12.434a23.824 23.824 0 0 0-8.659-22.332 23.837 23.837 0 0 0-23.698-3.475l-11.683 4.695-8.491-9.3c-5.767-6.314-14.528-9.062-22.859-7.15a23.82 23.82 0 0 0-17.49 16.36l-3.615 12.062-12.561.84c-8.531.569-16.136 5.709-19.845 13.412s-2.986 16.853 1.884 23.875l7.178 10.348-7.176 10.344c-4.872 7.026-5.597 16.174-1.886 23.877s11.314 12.843 19.843 13.412l12.563.84 3.615 12.06a23.82 23.82 0 0 0 17.49 16.362c1.751.401 3.521.595 5.278.595a23.85 23.85 0 0 0 17.586-7.747l8.489-9.3 11.683 4.695c7.938 3.19 17.015 1.858 23.7-3.473s10.002-13.887 8.659-22.328l-1.976-12.436 10.957-6.208a23.826 23.826 0 0 0 12.056-20.694 23.835 23.835 0 0 0-12.062-20.694zm-29.432 23.652c-8.585 4.866-13.312 14.681-11.763 24.426l.942 5.922-5.565-2.236c-9.154-3.677-19.779-1.256-26.432 6.034l-4.042 4.429-1.723-5.749c-2.834-9.45-11.354-16.242-21.197-16.901l-5.984-.399 3.419-4.928c5.623-8.108 5.623-19.005 0-27.113l-3.419-4.928 5.986-.399c9.843-.659 18.36-7.451 21.197-16.905l1.721-5.745 4.044 4.429c6.651 7.286 17.274 9.709 26.43 6.032l5.565-2.238-.942 5.924c-1.547 9.745 3.18 19.56 11.767 24.426l5.218 2.956-5.222 2.96zM909.5 87.234a26.028 26.028 0 0 0-17.873-19.107l-17.544-5.256-1.222-18.272c-.621-9.32-6.234-17.626-14.649-21.678s-18.412-3.262-26.081 2.06l-15.049 10.44-15.049-10.44a26.017 26.017 0 0 0-26.081-2.06 26.018 26.018 0 0 0-14.649 21.674l-1.222 18.274-17.546 5.258a26.022 26.022 0 0 0-17.871 19.109 26.026 26.026 0 0 0 7.813 24.967l13.526 12.35-6.829 16.995c-3.481 8.665-2.028 18.586 3.795 25.885s15.158 10.933 24.392 9.46l20.801-3.308c8.166-1.297 13.733-8.97 12.434-17.135-1.297-8.164-8.962-13.737-17.137-12.434l-13.899 2.21 5.25-13.06c4.016-10 1.367-21.604-6.593-28.872l-10.394-9.487 13.484-4.04c10.326-3.094 17.745-12.4 18.464-23.155l.94-14.043 11.563 8.022c8.855 6.142 20.757 6.144 29.614 0l11.563-8.022.94 14.041c.719 10.755 8.138 20.061 18.466 23.157l13.482 4.038-10.396 9.489c-7.956 7.268-10.607 18.869-6.589 28.874l5.248 13.056-13.903-2.21c-10.633-1.687-21.364 3.473-26.678 12.851-4.078 7.194-1.551 16.328 5.641 20.406a14.904 14.904 0 0 0 7.368 1.95c4.308 0 8.513-1.862 11.4-5.248l18.372 2.92c9.224 1.461 18.568-2.158 24.392-9.46a26.022 26.022 0 0 0 3.795-25.887l-6.829-16.993 13.526-12.35a26.032 26.032 0 0 0 7.813-24.971zM570.24 640.926c-3.166-7.637-11.923-11.266-19.562-8.102-7.637 3.164-11.268 11.921-8.104 19.56l13.412 32.381c2.389 5.767 7.962 9.246 13.839 9.246 1.908 0 3.85-.367 5.723-1.144 7.637-3.164 11.268-11.921 8.104-19.56l-13.412-32.381zM793.718 539.714l-97.915-40.557c-7.633-3.16-16.396.463-19.56 8.102-3.166 7.639.461 16.396 8.102 19.56l97.915 40.557a14.924 14.924 0 0 0 5.723 1.144c5.875 0 11.448-3.481 13.837-9.246 3.166-7.637-.463-16.394-8.102-19.56zM344.743 556.793l29.88-29.62c5.871-5.821 5.912-15.298.092-21.171-5.819-5.871-15.3-5.912-21.171-.092l-29.88 29.62c-5.871 5.821-5.912 15.3-.092 21.173a14.925 14.925 0 0 0 10.631 4.431 14.942 14.942 0 0 0 10.539-4.342zM782.262 269.568l-97.915 40.557c-7.639 3.164-11.268 11.923-8.102 19.56 2.387 5.765 7.96 9.246 13.837 9.246 1.908 0 3.85-.367 5.723-1.144l97.915-40.557c7.639-3.164 11.268-11.923 8.102-19.56s-11.923-11.268-19.56-8.102zM373.726 771.114c-8.268 0-14.971 6.703-14.971 14.971v83.912c0 8.268 6.703 14.971 14.971 14.971s14.971-6.703 14.971-14.971v-83.912c0-8.268-6.701-14.971-14.971-14.971zM381.205 652.384c3.164-7.639-.463-16.396-8.102-19.56-7.643-3.164-16.396.463-19.56 8.102l-21.754 52.517c-3.164 7.639.463 16.396 8.102 19.56a14.932 14.932 0 0 0 5.723 1.144c5.875 0 11.45-3.481 13.837-9.246l21.754-52.517zM550.056 740.358c-8.27 0-14.971 6.703-14.971 14.971v111.85c0 8.268 6.701 14.971 14.971 14.971s14.971-6.703 14.971-14.971v-111.85c0-8.27-6.703-14.971-14.971-14.971zM461.892 663.582c-8.268 0-14.971 6.703-14.971 14.971v328.484c0 8.268 6.703 14.971 14.971 14.971 8.27 0 14.971-6.703 14.971-14.971V678.553c0-8.268-6.703-14.971-14.971-14.971zM462.243 542.191h-.094c-8.226 0-14.919 6.643-14.969 14.881l-.259 42.786c-.05 8.268 6.613 15.011 14.879 15.061h.094c8.224 0 14.919-6.643 14.969-14.881l.259-42.786c.05-8.268-6.613-15.011-14.879-15.061zM539.929 447.899l-6.829-16.993 13.526-12.35c6.897-6.296 9.891-15.863 7.813-24.967s-8.927-16.426-17.873-19.107l-17.544-5.256-1.22-18.274a26.025 26.025 0 0 0-14.653-21.676 26.014 26.014 0 0 0-26.077 2.06l-15.051 10.438-15.049-10.438a26.018 26.018 0 0 0-26.079-2.06 26.024 26.024 0 0 0-14.653 21.676l-1.222 18.274-17.546 5.258c-8.947 2.681-15.793 10.002-17.871 19.107s.916 18.672 7.813 24.969l13.526 12.35-6.829 16.993a26.02 26.02 0 0 0 3.795 25.885c4.966 6.23 12.498 9.781 20.328 9.781 1.349 0 2.709-.106 4.064-.321l19.372-3.078c6.633 3.553 15.017 1.623 19.382-4.717 4.689-6.811 2.97-16.132-3.839-20.821a25.876 25.876 0 0 0-18.815-4.26l-13.897 2.21 5.248-13.058c4.018-10 1.369-21.604-6.591-28.874l-10.394-9.487 13.48-4.038c10.328-3.092 17.749-12.398 18.466-23.155l.938-14.043 11.563 8.022c8.857 6.144 20.761 6.144 29.616 0l11.565-8.022.938 14.041c.719 10.757 8.14 20.063 18.466 23.157l13.482 4.038-10.396 9.489c-7.956 7.268-10.605 18.869-6.589 28.874l5.248 13.058-13.899-2.21c-6.805-1.08-13.625.535-19.22 4.545-6.719 4.819-8.26 14.172-3.441 20.889 4.477 6.244 12.869 8.014 19.428 4.367l19.332 3.072c9.222 1.473 18.568-2.156 24.392-9.46a26.036 26.036 0 0 0 3.795-25.889z"/></symbol><symbol id="guitar-music" viewBox="0 0 1051 1024"><title/><path d="M439.826 585.432c-47.08-47.08-123.686-47.078-170.766.002-47.078 47.08-47.078 123.684.002 170.766 23.538 23.538 54.46 35.308 85.38 35.308 30.922 0 61.846-11.77 85.382-35.308 47.08-47.08 47.08-123.686.002-170.768zM418.394 734.76c-35.26 35.256-92.632 35.258-127.892.002-35.262-35.26-35.262-92.634-.004-127.892 17.634-17.632 40.788-26.444 63.95-26.444 23.154 0 46.318 8.816 63.946 26.442 35.256 35.26 35.256 92.634 0 127.892zM283.6 859.92L159.618 735.94c-6.654-6.658-15.526-10.324-24.98-10.324s-18.326 3.666-24.98 10.322l-.594.594c-6.656 6.658-10.32 15.53-10.32 24.98s3.664 18.324 10.32 24.98l123.982 123.982c6.658 6.656 15.53 10.32 24.98 10.32s18.324-3.664 24.98-10.32l.592-.594c6.658-6.656 10.324-15.528 10.324-24.98-.002-9.452-3.668-18.324-10.322-24.98zm-21.438 28.526l-.594.594c-1.918 1.922-5.168 1.922-7.086 0l-123.98-123.982c-1.922-1.92-1.922-5.166 0-7.086l.594-.596c1.256-1.256 2.758-1.442 3.542-1.442s2.288.188 3.542 1.446l123.984 123.982c1.254 1.256 1.442 2.758 1.442 3.542s-.188 2.286-1.444 3.542z"/><path d="M407.228 618.036c-14.1-14.1-32.844-21.862-52.78-21.862-19.938 0-38.684 7.766-52.778 21.862-14.102 14.1-21.864 32.842-21.864 52.778 0 19.938 7.766 38.684 21.862 52.778 14.1 14.102 32.842 21.864 52.78 21.864 19.936 0 38.682-7.764 52.78-21.862 29.1-29.102 29.1-76.456 0-105.558zm-21.438 84.122c-8.374 8.374-19.502 12.986-31.344 12.986s-22.972-4.612-31.346-12.986c-8.372-8.372-12.984-19.504-12.984-31.342s4.612-22.97 12.986-31.344c8.372-8.372 19.502-12.984 31.344-12.984s22.97 4.612 31.344 12.986c17.284 17.282 17.284 45.402 0 62.684z"/><path d="M1021.56 181.492l-28.29-28.29 12.942-10.772c3.274-2.726 5.252-6.704 5.444-10.96s-1.41-8.396-4.422-11.412l-32.49-32.49c-.154-.184-.296-.374-.46-.552-.46-.502-.956-.948-1.466-1.372l-67.62-67.62a15.164 15.164 0 0 0-22.372 1.022l-10.77 12.938-27.17-27.172c-5.922-5.918-15.518-5.918-21.438 0l-44.324 44.324c-5.92 5.922-5.92 15.518 0 21.438l33.186 33.186-52.182 62.688-259.73 240.148c-16.516-7.25-33.564-12.224-50.822-14.754-8.286-1.196-15.982 4.516-17.198 12.8-1.214 8.284 4.516 15.982 12.8 17.198 10.276 1.506 20.484 4.06 30.534 7.582l-32.146 29.722a15.153 15.153 0 0 0-4.864 10.834 15.176 15.176 0 0 0 4.436 11.014l97.494 97.494a15.16 15.16 0 0 0 10.72 4.438c.068 0 .138 0 .208-.002a15.15 15.15 0 0 0 10.8-4.734l31.47-33.234c21.756 57.11 10.408 117.214-31.606 160.808-16.052 16.656-34.856 29.68-55.886 38.702-26.084 11.19-44.436 35.718-47.894 64.012-5.914 48.416-27.312 92.28-61.886 126.854-37.94 37.94-85.18 57.98-136.662 57.98-.23 0-.468 0-.7-.002-57.522-.202-113.874-25.336-158.676-70.772C14.178 834.97 9.774 708.5 90.278 628.356c34.54-34.39 78.316-55.672 126.596-61.548 28.172-3.432 52.708-21.882 64.036-48.152 8.586-19.916 20.786-37.858 36.266-53.338 20.622-20.624 44.498-34.388 70.962-40.912 8.126-2.006 13.092-10.218 11.088-18.348-2.006-8.126-10.222-13.094-18.348-11.088-31.908 7.87-60.554 24.324-85.14 48.91-18.204 18.202-32.56 39.322-42.67 62.776-7.076 16.408-22.35 27.926-39.862 30.058-55.044 6.7-104.952 30.96-144.322 70.158-45.934 45.732-69.6 105.724-66.64 168.922C5.106 836.9 32.34 896.574 78.926 943.822c50.518 51.232 114.496 79.572 180.156 79.802.276.002.542.002.814.002 59.686-.002 114.344-23.112 158.094-66.856 39.406-39.408 63.798-89.414 70.538-144.614 2.152-17.618 13.556-32.88 29.758-39.828 24.764-10.628 46.89-25.944 65.76-45.526 53.8-55.82 65.848-133.888 32.53-205.872l242.166-255.744 62.75-52.232 34.302 34.302c2.96 2.958 6.842 4.438 10.72 4.438s7.758-1.48 10.72-4.438l44.324-44.324c5.922-5.924 5.922-15.52.002-21.44zM926.14 81.84l15.058 15.058L822.21 206.54l-3.784-3.786L926.14 81.84zM811.278 59.858l22.886-22.886 18.414 18.414-20.792 24.978-20.508-20.506zm73.52 4.206l.07-.084 10.634-12.778 9.162 9.162L796.952 181.28l-5.306-5.306 93.152-111.91zM551.056 546.036l-75.332-75.332 295.01-272.766 39.37 39.37c.158.188.302.382.468.564.464.506.966.958 1.482 1.386l15.146 15.146-276.144 291.632zm298.23-312.422l-5.62-5.62 118.988-109.642 11.402 11.402-124.77 103.86zm117.232-18.518l-21.624-21.624 24.98-20.792 19.53 19.532-22.886 22.884zM982.746 550.952a15.141 15.141 0 0 0-12.688-3.048L758.62 592.836a15.16 15.16 0 0 0-12.008 14.826v63.15c0 8.374 6.784 15.158 15.158 15.158s15.158-6.784 15.158-15.158v-50.876l181.122-38.488V734.87c-12.522-7.556-28.074-12.04-44.908-12.04-41.306 0-74.912 26.99-74.912 60.164s33.606 60.164 74.912 60.164c38.95 0 71.04-23.998 74.578-54.55.416-1.386.646-2.854.646-4.376v-221.5c0-4.572-2.066-8.902-5.62-11.78zm-69.604 261.892c-24.174 0-44.596-13.668-44.596-29.848s20.422-29.848 44.596-29.848c24.174 0 44.598 13.668 44.598 29.848s-20.424 29.848-44.598 29.848zM776.926 730.3c0-8.372-6.784-15.158-15.158-15.158s-15.158 6.784-15.158 15.158v70.062c-12.468-7.444-27.902-11.856-44.596-11.856-41.306 0-74.914 26.99-74.914 60.164s33.606 60.166 74.914 60.166 74.912-26.99 74.912-60.166c0-.038-.004-.076-.004-.118 0-.024.004-.048.004-.072V730.3zm-74.912 148.216c-24.174 0-44.598-13.668-44.598-29.85 0-16.178 20.424-29.848 44.598-29.848s44.596 13.668 44.596 29.848c0 16.184-20.422 29.85-44.596 29.85zM424.074 29.79a15.138 15.138 0 0 0-12.37-3.322l-95.766 16.806c-8.244 1.448-13.758 9.306-12.308 17.552 1.448 8.246 9.3 13.756 17.552 12.308l77.986-13.684v154.092c-12.522-7.556-28.072-12.04-44.906-12.04-41.308 0-74.914 26.99-74.914 60.164s33.606 60.162 74.914 60.162c38.948 0 71.038-23.998 74.576-54.55.416-1.386.646-2.854.646-4.376V41.396a15.14 15.14 0 0 0-5.41-11.606zm-69.812 261.72c-24.174 0-44.598-13.668-44.598-29.848s20.424-29.848 44.598-29.848 44.596 13.668 44.596 29.848-20.422 29.848-44.596 29.848zM258.138 74.588c-1.738-8.19-9.79-13.424-17.978-11.676l-40.422 8.59a15.16 15.16 0 0 0-12.008 14.826v192.698c-12.468-7.444-27.902-11.856-44.596-11.856-41.308 0-74.914 26.99-74.914 60.164s33.604 60.16 74.914 60.16c41.308 0 74.912-26.99 74.912-60.164 0-.038-.004-.076-.004-.118 0-.024.004-.048.004-.072V98.604l28.414-6.036c8.192-1.74 13.42-9.79 11.678-17.98zM143.136 357.182c-24.174 0-44.598-13.668-44.598-29.848s20.424-29.848 44.598-29.848 44.596 13.668 44.596 29.848-20.422 29.848-44.596 29.848z"/></symbol><symbol id="location" viewBox="0 0 832 1024"><title/><path d="M751.918 178.329C677.02 64.198 553.378 0 414.281 0 276.373 0 152.731 64.199 75.455 178.329-1.821 290.082-19.654 432.745 27.901 557.576c13.077 33.288 33.288 67.765 59.443 98.676l300.782 354.281c7.133 7.133 14.266 11.889 24.966 11.889s17.833-4.755 24.966-11.889l301.971-354.281c26.155-30.91 47.554-64.199 59.443-98.676 47.554-124.83 29.722-267.494-47.554-379.247zM414.281 599.186c-102.242 0-186.651-84.409-186.651-186.651s84.409-186.651 186.651-186.651 186.651 84.409 186.651 186.651-83.22 186.651-186.651 186.651z"/></symbol><symbol id="mirror-ball" viewBox="0 0 1024 1024"><title/><path d="M1016.17 544.83l-45.512-24.766-24.884-45.274a14.996 14.996 0 0 0-26.288-.002L894.6 520.064l-45.512 24.766a15.001 15.001 0 0 0 0 26.352l45.512 24.766 24.886 45.274a15 15 0 0 0 26.288-.002l24.884-45.274 45.512-24.766a15.001 15.001 0 0 0 0-26.35zm-63.712 26.866a14.98 14.98 0 0 0-5.974 5.952l-13.856 25.208-13.858-25.208a14.988 14.988 0 0 0-5.974-5.95l-25.16-13.692 25.16-13.692a14.988 14.988 0 0 0 5.974-5.95l13.858-25.208 13.856 25.208a15.006 15.006 0 0 0 5.974 5.952l25.16 13.692-25.16 13.688zM821.162 741.226l-58.124-31.63-30.674-55.804a366.689 366.689 0 0 0-4.426-51.346c-1.294-8.18-8.968-13.776-17.16-12.472-8.182 1.294-13.766 8.976-12.472 17.16a335.372 335.372 0 0 1 3.77 37.416H568.43c-.108-9.47-.318-18.93-.628-28.268-.276-8.28-7.216-14.71-15.49-14.494-8.28.276-14.77 7.21-14.494 15.492.3 9.008.504 18.134.612 27.272H381.208V488.264c8.838.102 17.674.292 26.412.572.162.004.326.008.488.008 8.06 0 14.722-6.404 14.982-14.52.266-8.28-6.232-15.208-14.514-15.472-9.054-.29-18.212-.486-27.37-.59v-132.84c32.474 1.414 64.298 7.426 94.846 17.928l15.432 32.302-73.582 26.038c-9.822 3.476-16.17 12.444-16.17 22.846s6.346 19.372 16.17 22.848l73.582 26.036-33.502 70.126c-4.472 9.364-2.628 20.166 4.698 27.522 7.356 7.384 18.196 9.276 27.626 4.816l70.632-33.408 26.186 73.262c3.494 9.778 12.47 16.096 22.872 16.096H610c10.398 0 19.378-6.318 22.876-16.096l26.184-73.264 70.634 33.41c9.428 4.458 20.268 2.566 27.624-4.818 7.326-7.356 9.17-18.16 4.698-27.522l-33.5-70.128 73.58-26.036c9.824-3.476 16.172-12.446 16.172-22.848s-6.35-19.372-16.172-22.846l-73.58-26.036 33.5-70.126c4.472-9.364 2.628-20.168-4.698-27.524-7.356-7.382-18.192-9.274-27.626-4.816l-70.632 33.408-26.184-73.266c-3.498-9.778-12.476-16.094-22.878-16.094-10.4 0-19.376 6.32-22.872 16.096l-26.186 73.264-70.632-33.408c-9.426-4.458-20.268-2.57-27.626 4.816-7.326 7.356-9.17 18.16-4.698 27.522l.606 1.266c-25.228-6.53-51.116-10.344-77.38-11.396V88.242h111.824c19.03 0 34.512-15.438 34.512-34.414V34.414C527.542 15.438 512.058 0 493.03 0H340.95c-8.286 0-15 6.716-15 15s6.714 15 15 15h152.08c2.488 0 4.512 1.98 4.512 4.414v19.414c0 2.434-2.024 4.414-4.512 4.414H239.38c-2.488 0-4.512-1.98-4.512-4.414V34.414c0-2.434 2.024-4.414 4.512-4.414h46.286c8.286 0 15-6.716 15-15s-6.714-15-15-15H239.38c-19.03 0-34.512 15.438-34.512 34.414v19.414c0 18.976 15.482 34.414 34.512 34.414h111.824v207.154c-46.54 1.876-90.874 12.436-131.396 30.094-.954.312-1.874.716-2.744 1.208C134.86 363.324 68.604 429.25 31.786 511.054a14.97 14.97 0 0 0-1.23 2.762C10.906 558.47 0 607.764 0 659.548s10.906 101.078 30.556 145.73c.316.96.728 1.886 1.23 2.764 36.816 81.802 103.07 147.728 185.274 184.352.876.494 1.794.9 2.752 1.212 44.86 19.548 94.372 30.394 146.392 30.394 63.626 0 126.296-16.494 181.244-47.698 53.284-30.26 98.476-73.74 130.692-125.74 4.362-7.042 2.19-16.288-4.852-20.65-7.04-4.362-16.286-2.192-20.652 4.852-30.47 49.184-71.964 88.592-120.306 115.9 8.96-32.296 16.362-67.138 22.082-103.718 23.152-3.58 45.624-7.83 67.208-12.724 8.078-1.834 13.142-9.868 11.31-17.948-1.834-8.078-9.86-13.14-17.948-11.31-18.116 4.11-36.878 7.75-56.168 10.906 5.78-45.378 9.05-92.954 9.612-141.322h124.018l-19.266 35.046-58.124 31.63a15.001 15.001 0 0 0 0 26.35l58.124 31.632 31.786 57.824a14.998 14.998 0 0 0 26.288 0l31.786-57.824 58.124-31.632a14.998 14.998 0 0 0 0-26.348zM553.784 336.398a24.36 24.36 0 0 0 19.712.484 24.294 24.294 0 0 0 13.564-14.244l22.936-64.17 22.934 64.17a24.302 24.302 0 0 0 13.562 14.244 24.357 24.357 0 0 0 19.714-.482l61.762-29.212-29.298 61.334a24.236 24.236 0 0 0-.526 19.692 24.294 24.294 0 0 0 14.33 13.588l64.25 22.734-64.25 22.734a24.305 24.305 0 0 0-14.332 13.592 24.234 24.234 0 0 0 .526 19.688l29.3 61.336-61.764-29.214a24.365 24.365 0 0 0-19.714-.48 24.304 24.304 0 0 0-13.56 14.244l-22.934 64.17-22.936-64.17a24.296 24.296 0 0 0-13.562-14.244 24.323 24.323 0 0 0-9.31-1.848c-3.562 0-7.122.78-10.402 2.332l-61.764 29.212 29.302-61.338a24.234 24.234 0 0 0 .522-19.688 24.3 24.3 0 0 0-14.33-13.588l-64.25-22.734 64.248-22.734a24.3 24.3 0 0 0 14.332-13.586 24.24 24.24 0 0 0-.522-19.694l-29.302-61.336 61.762 29.208zm-353.838 32.526c-8.904 32.168-16.258 66.854-21.954 103.264-36.62 5.668-71.524 12.996-103.876 21.864 29.922-52.054 73.492-95.382 125.83-125.128zM55.962 530.668c35.744-11.3 75.4-20.502 117.628-27.416-5.776 45.368-9.046 92.942-9.608 141.296H30.334c1.792-40.192 10.75-78.568 25.628-113.88zm18.156 294.376c32.34 8.864 67.214 16.188 103.82 21.854 5.73 36.622 13.096 71.196 21.992 103.264-52.326-29.744-95.896-73.072-125.812-125.118zm277.088 168.63c-40.46-1.776-79.078-10.698-114.622-25.528-11.32-35.434-20.566-74.658-27.558-116.884 45.642 5.758 93.526 9.02 142.18 9.576v132.836zm0-162.838c-108.292-1.264-212.308-16.188-295.242-42.406-14.878-35.312-23.836-73.69-25.628-113.88h133.648c.404 35.226 2.228 70.182 5.438 104.116.78 8.248 8.086 14.292 16.346 13.52 8.248-.78 14.3-8.098 13.522-16.346-3.124-33.002-4.9-67.006-5.302-101.29h111.196c8.286 0 15-6.716 15-15s-6.714-15-15-15H193.986c.594-50.112 4.156-99.294 10.45-145.878 46.866-6.27 96.354-9.82 146.77-10.408v342.572zm.002-372.578c-48.648.556-96.506 3.814-142.142 9.572 6.944-41.954 16.182-81.366 27.52-116.88 35.542-14.83 74.16-23.75 114.622-25.526v132.834zm144.51 510.228c-35.82 14.802-74.454 23.458-114.514 25.192V860.84c48.544-.554 96.432-3.786 142.136-9.54-6.964 42.072-16.236 81.588-27.622 117.186zm32.254-148.036c-46.968 6.278-96.47 9.802-146.768 10.386V674.548h157.222c-.594 50.116-4.158 99.31-10.454 145.902zm216.868-45.494a14.988 14.988 0 0 0-5.974 5.95l-20.756 37.76-20.756-37.76a15 15 0 0 0-5.974-5.95L653.608 754.4l37.772-20.554a14.988 14.988 0 0 0 5.974-5.95l20.756-37.76 20.756 37.76a14.988 14.988 0 0 0 5.974 5.95l37.772 20.554-37.772 20.556z"/></symbol><symbol id="nav-button" viewBox="0 0 1408 1024"><title/><path d="M384 0h1024v128H384V0zM0 448h1408v128H0V448zM0 896h1024v128H0V896z"/></symbol><symbol id="parade" viewBox="0 0 755 1024"><title/><path d="M744.114 431.3c-66.22-41.154-138.042-70.496-213.88-87.474a64.957 64.957 0 0 0 9.17-33.358c0-19.5-8.584-37.036-22.172-49.022 13.588-11.986 22.172-29.522 22.172-49.022s-8.584-37.036-22.172-49.022c13.588-11.986 22.172-29.522 22.172-49.022 0-30.994-21.69-57.02-50.684-63.7C482.04 21.686 456.016 0 425.022 0 405.52 0 387.986 8.584 376 22.172 364.014 8.584 346.48 0 326.978 0c-30.994 0-57.02 21.688-63.7 50.684-28.994 6.68-50.684 32.704-50.684 63.7 0 19.5 8.584 37.036 22.172 49.022-13.588 11.986-22.172 29.522-22.172 49.022s8.584 37.036 22.172 49.022c-13.588 11.986-22.172 29.522-22.172 49.022a64.977 64.977 0 0 0 9.17 33.358c-75.84 16.976-147.66 46.322-213.88 87.474A16.34 16.34 0 0 0 .252 446.83l21.654 213.898L32.932 769.65c.846 8.342 7.87 14.694 16.258 14.694h50.744c8.75 63.486 39.23 121.908 86.852 165.824C238.422 997.78 305.616 1024 376 1024s137.578-26.22 189.21-73.834c47.622-43.918 78.102-102.342 86.852-165.824h50.746c8.388 0 15.412-6.352 16.258-14.694l11.024-108.902 21.656-213.92a16.337 16.337 0 0 0-7.632-15.526zm-466.156-88.152c-18.02 0-32.68-14.66-32.68-32.68s14.66-32.68 32.68-32.68c9.024 0 16.34-7.314 16.34-16.34s-7.316-16.34-16.34-16.34c-18.02 0-32.68-14.66-32.68-32.68s14.66-32.68 32.68-32.68c9.024 0 16.34-7.314 16.34-16.34s-7.316-16.34-16.34-16.34c-18.02 0-32.68-14.66-32.68-32.68s14.66-32.68 32.68-32.68c9.024 0 16.34-7.314 16.34-16.34 0-18.02 14.66-32.68 32.68-32.68s32.68 14.66 32.68 32.68c0 9.026 7.316 16.34 16.34 16.34s16.34-7.314 16.34-16.34c0-18.02 14.66-32.68 32.68-32.68s32.68 14.66 32.68 32.68c0 9.026 7.316 16.34 16.34 16.34 18.02 0 32.68 14.66 32.68 32.68s-14.66 32.68-32.68 32.68c-9.024 0-16.34 7.314-16.34 16.34s7.316 16.34 16.34 16.34c18.02 0 32.68 14.66 32.68 32.68s-14.66 32.68-32.68 32.68c-9.024 0-16.34 7.314-16.34 16.34s7.316 16.34 16.34 16.34c18.02 0 32.68 14.66 32.68 32.68s-14.66 32.68-32.68 32.68c-9.024 0-16.34 7.314-16.34 16.34s7.316 16.34 16.34 16.34c18.02 0 32.68 14.66 32.68 32.68s-14.66 32.68-32.68 32.68c-9.024 0-16.34 7.314-16.34 16.34a32.618 32.618 0 0 1-7.604 20.97c-11.004-26.784-32.978-46.634-59.344-52.108a16.26 16.26 0 0 0 1.586-6.99V130.724c0-9.026-7.316-16.34-16.34-16.34s-16.34 7.314-16.34 16.34v288.68c0 2.504.58 4.868 1.586 6.99-26.366 5.476-48.34 25.326-59.344 52.108a32.618 32.618 0 0 1-7.604-20.97c0-9.026-7.316-16.34-16.34-16.34-18.02 0-32.68-14.66-32.68-32.68s14.66-32.68 32.68-32.68c9.024 0 16.34-7.314 16.34-16.34s-7.312-16.344-16.336-16.344zm147.064 174.298c0 33.036-21.99 59.914-49.022 59.914s-49.022-26.878-49.022-59.914c0-3.88.314-7.67.894-11.346.006-.054.018-.11.024-.164C332.3 478.39 352.19 457.532 376 457.532s43.7 20.86 48.104 48.406c.006.052.018.104.024.156.58 3.68.894 7.47.894 11.352zM63.962 751.66l-7.72-76.256h76.088l7.72 76.256H63.962zM376 991.32c-121.032 0-224.496-89.57-243.034-206.978h486.068C600.496 901.75 497.032 991.32 376 991.32zm312.038-239.66H611.95l7.72-76.256h76.088l-7.72 76.256zm11.03-108.936H622.98l.386-3.8c.908-8.978-5.632-16.996-14.612-17.904-8.992-.908-16.994 5.634-17.902 14.61l-.718 7.094H212.46c-9.024 0-16.34 7.314-16.34 16.34s7.316 16.34 16.34 16.34h374.362l-7.72 76.256H172.898l-9.542-94.252c-.002-.03-2.204-21.778-2.204-21.778-.908-8.978-8.938-15.552-17.902-14.61-8.978.908-15.522 8.926-14.612 17.904l.386 3.8H52.932l-19.13-188.96c58.146-34.922 120.71-60.39 186.52-76.042a64.957 64.957 0 0 0-7.728 30.79c0 30.992 21.684 57.016 50.674 63.698a65.18 65.18 0 0 0 31.098 41.97c-.032 1.088-.074 2.172-.074 3.268 0 51.058 36.65 92.596 81.702 92.596s81.702-41.538 81.702-92.596c0-1.096-.04-2.18-.074-3.268a65.174 65.174 0 0 0 31.098-41.97c28.994-6.682 50.68-32.704 50.68-63.698a64.963 64.963 0 0 0-7.728-30.79c65.81 15.654 128.374 41.12 186.52 76.042l-19.124 188.96z"/></symbol><symbol id="star" viewBox="0 0 1103 1024"><title/><path d="M560.548 16.814l136.163 322.274 348.595 29.947c24.177 2.088 34.013 32.255 15.66 48.135L796.553 646.251l79.236 340.792c5.495 23.683-20.166 42.311-40.937 29.727L535.271 836.099 235.69 1016.77c-20.826 12.528-46.432-6.099-40.937-29.727l79.236-340.792L9.521 417.115c-18.353-15.88-8.572-46.047 15.66-48.135l348.595-29.947L509.939 16.814c9.451-22.419 41.157-22.419 50.608 0z"/></symbol><symbol id="user" viewBox="0 0 1088 1024"><title/><path d="M525.734 542.622c127.101 0 230.148-120.955 230.148-270.16 0-206.906-103.042-270.157-230.148-270.157-127.111 0-230.148 63.251-230.148 270.157.003 149.205 103.04 270.16 230.148 270.16zM1033.949 940.261L917.836 677.938c-5.311-12.004-14.641-21.959-26.254-28.023l-180.2-94.077a11.582 11.582 0 0 0-12.358 1.044c-50.967 38.66-110.892 59.095-173.291 59.095-62.409 0-122.329-20.435-173.296-59.095a11.6 11.6 0 0 0-12.368-1.044l-180.187 94.077c-11.618 6.063-20.938 16.014-26.254 28.023L17.515 940.261c-8.005 18.085-6.365 38.776 4.39 55.364 10.75 16.585 28.943 26.483 48.669 26.483h910.309c19.726 0 37.924-9.903 48.674-26.486 10.75-16.585 12.395-37.284 4.39-55.361z"/></symbol><symbol id="view" viewBox="0 0 1609 1024"><title/><path d="M1574.842 485.775c-13.94-19.069-346.078-466.914-770.28-466.914S48.207 466.706 34.282 485.756c-13.202 18.091-13.202 42.627 0 60.718 13.925 19.069 346.078 466.914 770.28 466.914s756.34-447.848 770.28-466.898c13.221-18.088 13.221-42.642 0-60.715zm-770.28 424.731c-312.469 0-583.101-297.243-663.214-394.417 80.009-97.259 350.074-394.347 663.214-394.347 312.454 0 583.067 297.192 663.214 394.417-80.009 97.256-350.074 394.347-663.214 394.347z"/><path d="M804.562 207.478c-170.185 0-308.648 138.462-308.648 308.648s138.462 308.648 308.648 308.648c170.185 0 308.648-138.462 308.648-308.648S974.748 207.478 804.562 207.478zm0 514.411c-113.463 0-205.763-92.303-205.763-205.763s92.303-205.763 205.763-205.763c113.46 0 205.763 92.303 205.763 205.763s-92.3 205.763-205.763 205.763z"/></symbol></svg>