<?xml version="1.0" encoding="UTF-8"?>
<svg width="18px" height="18px" viewBox="0 0 18 18" version="1.1" xmlns="http://www.w3.org/2000/svg" xmlns:xlink="http://www.w3.org/1999/xlink">
    <!-- Generator: Sketch 48.2 (47327) - http://www.bohemiancoding.com/sketch -->
    <title>clock-with-white-face</title>
    <desc>Created with Sketch.</desc>
    <defs></defs>
    <g id="HOG-375" stroke="none" stroke-width="1" fill="none" fill-rule="evenodd" transform="translate(-36.000000, -1026.000000)" fill-opacity="0.9">
        <g id="Program" transform="translate(-202.000000, 668.000000)" fill="#FFFFFF" fill-rule="nonzero">
            <g id="li-1" transform="translate(217.000000, 273.000000)">
                <g id="clock-with-white-face" transform="translate(21.200000, 85.280000)">
                    <path d="M8.5,0 C3.825,0 0,3.825 0,8.5 C0,13.175 3.825,17 8.5,17 C13.175,17 17,13.175 17,8.5 C17,3.825 13.175,0 8.5,0 Z M8.5,15.3 C4.76,15.3 1.7,12.24 1.7,8.5 C1.7,4.76 4.76,1.7 8.5,1.7 C12.24,1.7 15.3,4.76 15.3,8.5 C15.3,12.24 12.24,15.3 8.5,15.3 Z" id="Shape"></path>
                    <polygon id="Shape" points="8.925 4.25 7.65 4.25 7.65 9.35 12.07 12.07 12.75 10.965 8.925 8.67"></polygon>
                </g>
            </g>
        </g>
    </g>
</svg>