<?xml version="1.0" encoding="UTF-8"?>
<svg width="34px" height="38px" viewBox="0 0 34 38" version="1.1" xmlns="http://www.w3.org/2000/svg" xmlns:xlink="http://www.w3.org/1999/xlink">
    <!-- Generator: Sketch 48.2 (47327) - http://www.bohemiancoding.com/sketch -->
    <title>fireworks</title>
    <desc>Created with Sketch.</desc>
    <defs></defs>
    <g id="HOG-1920/1140" stroke="none" stroke-width="1" fill="none" fill-rule="evenodd" transform="translate(-1031.000000, -824.000000)">
        <g id="Header" transform="translate(-1.000000, -1.000000)" fill="#FFFFFF" fill-rule="nonzero">
            <g id="Bottom" transform="translate(0.000000, 780.000000)">
                <g id="Group-15" transform="translate(959.000000, 0.000000)">
                    <g id="Group-8" transform="translate(73.000000, 40.000000)">
                        <g id="fireworks" transform="translate(0.000000, 5.000000)">
                            <path d="M4.332,20.8347407 C4.21459259,20.5512593 3.88962963,20.4166667 3.60614815,20.5340741 L2.27525926,21.0853333 C1.99177778,21.2027407 1.85718519,21.5277037 1.97459259,21.8111852 C2.06318519,22.0251111 2.27007407,22.1542963 2.48807407,22.1542963 C2.55896296,22.1542963 2.63096296,22.1406667 2.70044444,22.1118519 L4.03133333,21.5605926 C4.31474074,21.4431852 4.44940741,21.1181481 4.332,20.8347407 Z" id="Shape"></path>
                            <path d="M2.91851852,7.35022222 L3.37681481,7.85214815 C3.56140741,8.05437037 3.82177778,8.16614815 4.08955556,8.16614815 C4.16074074,8.16614815 4.23244444,8.15822222 4.30340741,8.142 C4.64133333,8.06488889 4.91296296,7.81074074 5.01244444,7.47881481 L5.20748148,6.82777778 L5.88562963,6.78244444 C6.23140741,6.75933333 6.53962963,6.55103704 6.69,6.23881481 C6.84037037,5.92659259 6.81103704,5.5557037 6.61355556,5.27096296 L6.22622222,4.71244444 L6.61355556,4.154 C6.81103704,3.86925926 6.84037037,3.49837037 6.69,3.18614815 C6.53962963,2.87392593 6.23140741,2.66562963 5.88562963,2.64251852 L5.20748148,2.59718519 L5.01237037,1.94614815 C4.91288889,1.61414815 4.64118519,1.36 4.30333333,1.28288889 C3.96548148,1.20562963 3.61044444,1.31681481 3.37674074,1.57281481 L2.91851852,2.07481481 L2.28785185,1.82140741 C1.9662963,1.6922963 1.59822222,1.74614815 1.32725926,1.9622963 C1.0562963,2.17837037 0.921777778,2.52518519 0.976222222,2.86748148 L1.08296296,3.53874074 L0.49162963,3.87377778 C0.190074074,4.04466667 0.00281481481,4.36607407 0.00281481481,4.71266667 C0.00281481481,5.05918519 0.190148148,5.38059259 0.49162963,5.55148148 L1.08296296,5.88651852 L0.976222222,6.55777778 C0.921851852,6.90007407 1.05637037,7.24688889 1.32733333,7.46296296 C1.5982963,7.67896296 1.96614815,7.73288889 2.28785185,7.60377778 L2.91851852,7.35022222 Z M1.71948148,4.97 L1.26511111,4.71251852 L1.71955556,4.45503704 C2.06755556,4.25777778 2.25918519,3.85985185 2.19637037,3.46481481 L2.11437037,2.94903704 L2.59903704,3.14377778 C2.97022222,3.29288889 3.40081481,3.19459259 3.67051852,2.89918519 L4.02259259,2.51348148 L4.17251852,3.01377778 C4.28733333,3.39696296 4.63266667,3.67237037 5.03177778,3.69896296 L5.55281481,3.73377778 L5.25511111,4.16296296 C5.02711111,4.4917037 5.02711111,4.93333333 5.25511111,5.262 L5.55274074,5.69118519 L5.0317037,5.726 C4.63259259,5.75266667 4.28725926,6.028 4.17237037,6.41118519 L4.02251852,6.91148148 L3.67044444,6.52585185 C3.48466667,6.3222963 3.22259259,6.2122963 2.95607407,6.2122963 C2.8357037,6.2122963 2.71437037,6.23474074 2.59888889,6.28118519 L2.1142963,6.47592593 L2.1962963,5.96022222 C2.25911111,5.56511111 2.06748148,5.16718519 1.71948148,4.97 Z" id="Shape"></path>
                            <path d="M12.3305926,15.5292593 C12.3305926,15.2224444 12.0818519,14.9737037 11.775037,14.9737037 L10.4393333,14.9737037 C10.1325185,14.9737037 9.88377778,15.2224444 9.88377778,15.5292593 C9.88377778,15.8360741 10.1325185,16.0848148 10.4393333,16.0848148 L11.775037,16.0848148 C12.0818519,16.0848148 12.3305926,15.8360741 12.3305926,15.5292593 Z" id="Shape"></path>
                            <path d="M17.1500741,10.9381481 L17.1536296,10.9381481 C17.4604444,10.9362222 17.7076296,10.686 17.7057037,10.3791852 L17.6960741,8.82474074 C17.6942222,8.51911111 17.4457778,8.27259259 17.1405926,8.27259259 L17.137037,8.27259259 C16.8302222,8.27451852 16.583037,8.52474074 16.584963,8.83155556 L16.5945926,10.386 C16.5965185,10.6917037 16.8448148,10.9381481 17.1500741,10.9381481 Z" id="Shape"></path>
                            <path d="M20.4353333,7.57481481 C20.5048148,7.60362963 20.5768148,7.61725926 20.6477037,7.61725926 C20.8657037,7.61725926 21.0725185,7.48807407 21.1611852,7.27414815 L22.3871111,4.31451852 C22.5045926,4.03103704 22.37,3.70607407 22.0864444,3.58866667 C21.8031111,3.47133333 21.4780741,3.60585185 21.3605926,3.88933333 L20.1346667,6.84896296 C20.0172593,7.13237037 20.1518519,7.45740741 20.4353333,7.57481481 Z" id="Shape"></path>
                            <path d="M22.6353333,2.26362963 C22.7048889,2.29244444 22.7768148,2.30607407 22.8477037,2.30607407 C23.0657037,2.30607407 23.2725185,2.17688889 23.3611852,1.96296296 L23.8560741,0.768222222 C23.9735556,0.484740741 23.838963,0.159777778 23.5554074,0.0423703704 C23.2720741,-0.0748888889 22.946963,0.0595555556 22.8295556,0.343037037 L22.3346667,1.53777778 C22.2171852,1.82125926 22.3517778,2.14622222 22.6353333,2.26362963 Z" id="Shape"></path>
                            <path d="M13.1197778,7.27414815 C13.2083704,7.48807407 13.4152593,7.61725926 13.6332593,7.61725926 C13.7041481,7.61725926 13.7761481,7.60362963 13.8456296,7.57481481 C14.1291111,7.45740741 14.2637037,7.13237037 14.1462963,6.84896296 L12.6412593,3.21540741 C12.5237778,2.93192593 12.1988148,2.79740741 11.9154074,2.91474074 C11.6319259,3.03214815 11.4973333,3.35718519 11.6147407,3.64059259 L13.1197778,7.27414815 Z" id="Shape"></path>
                            <path d="M21.4831852,10.4008889 L20.8318519,11.0618519 C20.6165185,11.2803704 20.619037,11.6321481 20.8375556,11.8474815 C20.9458519,11.9541481 21.0866667,12.0073333 21.2275556,12.0073333 C21.3711111,12.0073333 21.5145926,11.952 21.6232593,11.8417037 L22.2745926,11.1807407 C22.4899259,10.9622222 22.4874074,10.6104444 22.2688889,10.3951111 C22.0502222,10.1798519 21.6985185,10.1823704 21.4831852,10.4008889 Z" id="Shape"></path>
                            <path d="M8.46014815,18.5234074 L5.54807407,19.7296296 C5.26459259,19.847037 5.13,20.1720741 5.24740741,20.4554815 C5.336,20.6694074 5.54288889,20.7985926 5.76088889,20.7985926 C5.83177778,20.7985926 5.90377778,20.784963 5.97325926,20.7561481 L8.88533333,19.5499259 C9.16881481,19.4325185 9.30340741,19.1074815 9.186,18.8240741 C9.06866667,18.5406667 8.7437037,18.4061481 8.46014815,18.5234074 Z" id="Shape"></path>
                            <path d="M13.1192593,12.2840741 C13.2276296,12.3917778 13.3692593,12.4455556 13.5108889,12.4455556 C13.6536296,12.4455556 13.7963704,12.3908889 13.904963,12.2816296 C14.1212593,12.064 14.1201481,11.7122963 13.9025185,11.496 L12.3602963,9.96340741 C12.1426667,9.74711111 11.7908889,9.74822222 11.5746667,9.96585185 C11.3583704,10.1834815 11.3594815,10.5352593 11.5771111,10.7514815 L13.1192593,12.2840741 Z" id="Shape"></path>
                            <path d="M4.6577037,10.3586667 C4.5402963,10.6421481 4.67488889,10.9671111 4.95837037,11.0845185 L8.46022222,12.535037 C8.52977778,12.5638519 8.60177778,12.5774815 8.67259259,12.5774815 C8.89059259,12.5774815 9.09748148,12.4482963 9.18607407,12.2343704 C9.30348148,11.9508889 9.16888889,11.6259259 8.88540741,11.5085185 L5.38362963,10.058 C5.09992593,9.94066667 4.77511111,10.0752593 4.6577037,10.3586667 Z" id="Shape"></path>
                            <path d="M8.92155556,25.308 L8.51503704,25.0776296 L8.58844444,24.6161481 C8.63822222,24.3028148 8.51511111,23.9852593 8.26703704,23.7874815 C8.01896296,23.5897037 7.68207407,23.5403704 7.38762963,23.6585926 L6.95407407,23.8328148 L6.63896296,23.4877037 C6.42503704,23.2534074 6.10007407,23.1515556 5.79074074,23.2222963 C5.48140741,23.2928889 5.23266667,23.5255556 5.14155556,23.8294815 L5.00740741,24.2771111 L4.54125926,24.3082963 C4.22466667,24.3294074 3.94251852,24.5201481 3.80481481,24.8059259 C3.66718519,25.0917778 3.69392593,25.4313333 3.87481481,25.692 L4.14111111,26.0759259 L3.87481481,26.4599259 C3.694,26.7205926 3.66718519,27.0601481 3.80481481,27.3459259 C3.94244444,27.6317778 4.22459259,27.8225185 4.54118519,27.8437037 L5.00733333,27.8748148 L5.14148148,28.3224444 C5.23251852,28.6263704 5.48125926,28.859037 5.79066667,28.9296296 C5.85555556,28.9444444 5.92125926,28.9517037 5.98637037,28.9517037 C6.23155556,28.9516296 6.46992593,28.8493333 6.63888889,28.6642963 L6.95392593,28.3191852 L7.38762963,28.4934074 C7.68207407,28.6116296 8.01896296,28.5622963 8.26696296,28.3644444 C8.51503704,28.1666667 8.63814815,27.8491111 8.58837037,27.5357778 L8.51496296,27.0742963 L8.92148148,26.8439259 C9.19755556,26.6875556 9.36896296,26.3933333 9.36903704,26.076 C9.36903704,25.7587407 9.19755556,25.4644444 8.92155556,25.308 Z M7.82940741,26.1857037 C7.51074074,26.3662963 7.33525926,26.7305926 7.39281481,27.0922222 L7.42777778,27.3120741 L7.22125926,27.2291111 C6.88133333,27.0925185 6.48718519,27.1825185 6.2402963,27.452963 L6.09022222,27.6173333 L6.02637037,27.4041481 C5.92125926,27.0534074 5.60511111,26.8012593 5.2397037,26.7768148 L5.0177037,26.762 L5.14451852,26.5791852 C5.35333333,26.2782222 5.35333333,25.8738519 5.14451852,25.5728889 L5.0177037,25.3900741 L5.23977778,25.3752593 C5.60518519,25.3508148 5.92125926,25.0986667 6.02637037,24.7479259 L6.09022222,24.5347407 L6.2402963,24.6991852 C6.48718519,24.9695556 6.88133333,25.0594815 7.22125926,24.923037 L7.42777778,24.84 L7.39281481,25.0597037 C7.33525926,25.4214074 7.51066667,25.7857778 7.82933333,25.9662963 L8.02296296,26.076 L7.82940741,26.1857037 Z" id="Shape"></path>
                            <path d="M24.3971852,15.5292593 C24.3971852,15.2224444 24.1485185,14.9737037 23.8416296,14.9737037 L22.2968148,14.9737037 C21.9899259,14.9737037 21.7412593,15.2224444 21.7412593,15.5292593 C21.7412593,15.8360741 21.9899259,16.0848148 22.2968148,16.0848148 L23.8416296,16.0848148 C24.1484444,16.0848148 24.3971852,15.8360741 24.3971852,15.5292593 Z" id="Shape"></path>
                            <path d="M21.1838519,18.7774074 C20.9679259,18.5594815 20.6161481,18.558 20.3981481,18.7739259 C20.1802963,18.9899259 20.1787407,19.3417037 20.3947407,19.5595556 L21.4842963,20.6587407 C21.5928889,20.7682963 21.7358519,20.8231852 21.8788148,20.8231852 C22.0201481,20.8231852 22.1615556,20.7695556 22.2699259,20.6622222 C22.4877778,20.4462222 22.4893333,20.0944444 22.2733333,19.8765185 L21.1838519,18.7774074 Z" id="Shape"></path>
                            <path d="M29.183037,28.4031852 L28.7765185,28.1728148 L28.8498519,27.7114074 C28.8997037,27.3980741 28.7765926,27.0805185 28.5285185,26.8826667 C28.2803704,26.6848889 27.9434815,26.6355556 27.6491111,26.7537037 L27.2155556,26.9279259 L26.9004444,26.5828148 C26.6864444,26.3485185 26.3613333,26.2465185 26.0521481,26.3174815 C25.7428148,26.3880741 25.4941481,26.6207407 25.4031111,26.9245926 L25.268963,27.3722222 L24.8028148,27.4034074 C24.4862222,27.4245185 24.204,27.6152593 24.0663704,27.9011111 C23.9287407,28.186963 23.9555556,28.5265185 24.1362963,28.7871111 L24.4026667,29.1711111 L24.1363704,29.554963 C23.9555556,29.8157037 23.9286667,30.1551852 24.0663704,30.441037 C24.2040741,30.7268889 24.4862222,30.9176296 24.8027407,30.9387407 L25.268963,30.9699259 L25.4031111,31.4174815 C25.4941481,31.7214074 25.7428148,31.9540741 26.0521481,32.0246667 C26.1171111,32.0395556 26.1828148,32.0467407 26.248,32.0467407 C26.4931852,32.0466667 26.7314815,31.9443704 26.9005926,31.7592593 L27.2156296,31.4141481 L27.6491852,31.5883704 C27.9437778,31.7067407 28.2805926,31.6573333 28.5286667,31.4594815 C28.7767407,31.2617037 28.8998519,30.9441481 28.85,30.6308889 L28.7766667,30.1694074 L29.1832593,29.939037 C29.4592593,29.7825926 29.6306667,29.4883704 29.6306667,29.1711111 C29.6305185,28.8538519 29.4591111,28.5595556 29.183037,28.4031852 Z M28.0908148,29.2808889 C27.7722222,29.4614815 27.5968148,29.8257037 27.6542963,30.1873333 L27.6892593,30.4071111 L27.4827407,30.3241481 C27.143037,30.1877037 26.7487407,30.2775556 26.5018519,30.5480741 L26.3518519,30.7124444 L26.2879259,30.4991111 C26.1827407,30.1484444 25.8665926,29.8963704 25.5013333,29.8719259 L25.2792593,29.8571111 L25.4061481,29.6742222 C25.6148148,29.3733333 25.6148148,28.968963 25.4061481,28.6680741 L25.2792593,28.4851852 L25.5014074,28.4703704 C25.8666667,28.4459259 26.1827407,28.1938519 26.288,27.843037 L26.3518519,27.6298519 L26.5019259,27.7942222 C26.7487407,28.0645926 27.142963,28.1545185 27.4827407,28.0180741 L27.6892593,27.935037 L27.6542963,28.1548889 C27.5968889,28.5165185 27.7722963,28.8807407 28.090963,29.0613333 L28.2845926,29.171037 L28.0908148,29.2808889 Z" id="Shape"></path>
                            <path d="M33.750963,3.23718519 C33.6738519,2.89933333 33.4197037,2.62762963 33.0877037,2.52814815 L32.4366667,2.33311111 L32.3913333,1.65503704 C32.3682963,1.30918519 32.16,1.00096296 31.8477037,0.850592593 C31.5354815,0.700222222 31.1644444,0.729555556 30.8798519,0.927037037 L30.3214074,1.31444444 L29.762963,0.927037037 C29.4782963,0.729481481 29.1073333,0.700148148 28.7951111,0.850592593 C28.4828148,1.00096296 28.2745926,1.30918519 28.2514815,1.65488889 L28.2061481,2.33303704 L27.555037,2.52814815 C27.223037,2.62762963 26.968963,2.89933333 26.8918519,3.23725926 C26.8148148,3.57511111 26.9258519,3.93014815 27.1817778,4.16377778 L27.6837037,4.62207407 L27.4302963,5.25274074 C27.3011111,5.5742963 27.355037,5.94244444 27.5711111,6.21333333 C27.7871852,6.48422222 28.1336296,6.61903704 28.4762963,6.56437037 L29.2482222,6.44162963 C29.5512593,6.39348148 29.7578519,6.10874074 29.7096296,5.80577778 C29.6614815,5.50281481 29.377037,5.296 29.0737037,5.34437037 L28.5579259,5.42637037 L28.7527407,4.9417037 C28.9017778,4.57059259 28.8034815,4.14 28.5080741,3.8702963 L28.1223704,3.51822222 L28.6227407,3.3682963 C29.0059259,3.25348148 29.2812593,2.90814815 29.3079259,2.50903704 L29.3428148,1.98792593 L29.7719259,2.28562963 C30.1005185,2.51355556 30.5422222,2.51362963 30.8708889,2.28562963 L31.3,1.98792593 L31.3348889,2.50896296 C31.3615556,2.90807407 31.6368889,3.25340741 32.0201481,3.3682963 L32.5204444,3.51814815 L32.1346667,3.8702963 C31.8394074,4.14 31.741037,4.57051852 31.8901481,4.94177778 L32.0848889,5.4262963 L31.568963,5.3442963 C31.1743704,5.2817037 30.7761481,5.47318519 30.578963,5.82118519 C30.4276296,6.08814815 30.5214074,6.42711111 30.7882963,6.57844444 C30.8748148,6.62748148 30.9688889,6.65081481 31.0617037,6.65081481 C31.2215556,6.65081481 31.3776296,6.5817037 31.4847407,6.45607407 L32.1665185,6.56444444 C32.5088148,6.61866667 32.8555556,6.48437037 33.0717037,6.21340741 C33.2877778,5.94251852 33.3417778,5.57444444 33.2125185,5.25274074 L32.9591111,4.62214815 L33.461037,4.16385185 C33.716963,3.93007407 33.8280741,3.57503704 33.750963,3.23718519 Z" id="Shape"></path>
                            <path d="M21.1612593,23.7843704 C21.0437778,23.500963 20.7188148,23.3662963 20.4353333,23.4837037 C20.1519259,23.6011111 20.0171852,23.9260741 20.1345926,24.2095556 L20.6322963,25.4111852 C20.720963,25.6251852 20.9277778,25.7542963 21.1458519,25.7542963 C21.2166667,25.7542963 21.2887407,25.7406667 21.3582222,25.7118519 C21.6416296,25.5944444 21.7763704,25.2694815 21.658963,24.986 L21.1612593,23.7843704 Z" id="Shape"></path>
                            <path d="M29.4543704,20.0284444 L25.8208148,18.5234074 C25.5375556,18.4061481 25.2123704,18.5405926 25.094963,18.8240741 C24.9774815,19.1075556 25.1120741,19.4325185 25.3956296,19.5499259 L29.0291852,21.054963 C29.0987407,21.0837778 29.1706667,21.0974074 29.2415556,21.0974074 C29.4595556,21.0974074 29.6663704,20.9682222 29.755037,20.7542963 C29.8725185,20.4708889 29.7378519,20.1459259 29.4543704,20.0284444 Z" id="Shape"></path>
                            <path d="M12.7931852,20.6622222 L13.902,19.563037 C14.1198519,19.347037 14.1214074,18.9953333 13.9054074,18.7774074 C13.6894815,18.5595556 13.3376296,18.558 13.1197778,18.774 L12.010963,19.8731852 C11.7931111,20.0891852 11.7915556,20.440963 12.0075556,20.6588889 C12.1161481,20.7684444 12.2591111,20.8233333 12.4020741,20.8233333 C12.5434815,20.8231852 12.6848889,20.7695556 12.7931852,20.6622222 Z" id="Shape"></path>
                            <path d="M29.0292593,10.0034815 L25.3957037,11.5085185 C25.1122222,11.6259259 24.9775556,11.950963 25.095037,12.2343704 C25.1836296,12.4482963 25.3904444,12.5774815 25.6085185,12.5774815 C25.6793333,12.5774815 25.7514074,12.5638519 25.8208889,12.535037 L29.4544444,11.03 C29.7379259,10.9125926 29.8725926,10.5875556 29.7551111,10.3041481 C29.6376296,10.0207407 29.3126667,9.886 29.0292593,10.0034815 Z" id="Shape"></path>
                            <path d="M13.8687407,28.6155556 C13.5619259,28.6155556 13.3131852,28.8642963 13.3131852,29.1711111 L13.3131852,32.285037 C13.3131852,32.5918519 13.5619259,32.8405926 13.8687407,32.8405926 C14.1755556,32.8405926 14.4242963,32.5918519 14.4242963,32.285037 L14.4242963,29.1711111 C14.4242963,28.8642963 14.1756296,28.6155556 13.8687407,28.6155556 Z" id="Shape"></path>
                            <path d="M14.1462963,24.2095556 C14.2637037,23.9260741 14.1291111,23.6011111 13.8456296,23.4837037 C13.562,23.3662963 13.2371852,23.5008889 13.1197778,23.7843704 L12.3125185,25.7332593 C12.1951111,26.0167407 12.3297037,26.3417037 12.6131852,26.4591111 C12.6827407,26.4879259 12.7547407,26.5015556 12.8255556,26.5015556 C13.0435556,26.5015556 13.2504444,26.3723704 13.339037,26.1584444 L14.1462963,24.2095556 Z" id="Shape"></path>
                            <path d="M20.4122222,27.4742222 C20.1053333,27.4742222 19.8566667,27.722963 19.8566667,28.0297778 L19.8566667,32.1804444 C19.8566667,32.4872593 20.1053333,32.736 20.4122222,32.736 C20.7191111,32.736 20.9677778,32.4872593 20.9677778,32.1804444 L20.9677778,28.0297778 C20.9677778,27.7228889 20.719037,27.4742222 20.4122222,27.4742222 Z" id="Shape"></path>
                            <path d="M17.1405185,24.6251111 C16.8337037,24.6251111 16.584963,24.8738519 16.584963,25.1806667 L16.584963,37.3705185 C16.584963,37.6773333 16.8337037,37.9260741 17.1405185,37.9260741 C17.4474074,37.9260741 17.6960741,37.6773333 17.6960741,37.3705185 L17.6960741,25.1806667 C17.6960741,24.8738519 17.4473333,24.6251111 17.1405185,24.6251111 Z" id="Shape"></path>
                            <path d="M17.1535556,20.1203704 L17.1500741,20.1203704 C16.8448148,20.1203704 16.5964444,20.3668889 16.5945926,20.6725926 L16.584963,22.2603704 C16.5831111,22.5671852 16.8303704,22.8174074 17.1371111,22.8192593 L17.1405926,22.8192593 C17.4457778,22.8192593 17.6942222,22.5727407 17.6960741,22.267037 L17.7057037,20.6792593 C17.7075556,20.3724444 17.4602963,20.1222222 17.1535556,20.1203704 Z" id="Shape"></path>
                            <path d="M20.0364444,16.6212593 L19.783037,15.9906667 L20.284963,15.5323704 C20.5408889,15.2987407 20.652,14.9437037 20.5748889,14.6058519 C20.4977778,14.268 20.2436296,13.9962963 19.9116296,13.8968148 L19.2605926,13.7017778 L19.2153333,13.0236296 C19.1921481,12.6777778 18.9838519,12.3695556 18.6715556,12.2192593 C18.3593333,12.0688889 17.9885185,12.0981481 17.7038519,12.2957037 L17.1453333,12.683037 L16.5868889,12.2957037 C16.3021481,12.0981481 15.9312593,12.0688889 15.6191111,12.2192593 C15.3068148,12.3696296 15.0985185,12.6777778 15.0753333,13.0236296 L15.03,13.7017778 L14.3788889,13.8968889 C14.0468889,13.9963704 13.7928148,14.2680741 13.7157037,14.6059259 C13.6385926,14.9437778 13.7497037,15.2988148 14.0056296,15.5325185 L14.5075556,15.9908148 L14.2541481,16.6214074 C14.1248889,16.942963 14.1788889,17.3111111 14.394963,17.582 C14.5792593,17.8131852 14.8587407,17.944963 15.1493333,17.944963 C15.1994074,17.944963 15.2498519,17.941037 15.3001481,17.933037 L16.019037,17.8188148 C16.2651852,17.9506667 16.5762963,17.879037 16.7382963,17.6437778 C16.9122963,17.391037 16.8485185,17.0451111 16.5958519,16.8711111 C16.391037,16.7300741 16.1431111,16.6740741 15.8976296,16.713037 L15.3819259,16.795037 L15.5766667,16.3104444 C15.7257778,15.9393333 15.6274815,15.5087407 15.3320741,15.238963 L14.9463704,14.8868889 L15.4465926,14.737037 C15.8298519,14.6222963 16.1052593,14.276963 16.1318519,13.8777778 L16.1666667,13.3566667 L16.5957778,13.6543704 C16.9244444,13.8823704 17.3662222,13.8823704 17.6948148,13.6543704 L18.124,13.3566667 L18.1588148,13.8777037 C18.1854815,14.2768889 18.4608889,14.6222222 18.8440741,14.737037 L19.3443704,14.8868889 L18.9585926,15.239037 C18.6633333,15.5087407 18.565037,15.9392593 18.7140741,16.3105185 L18.9088148,16.7951111 L18.393037,16.7131111 C18.1405185,16.673037 17.8874074,16.732963 17.6797778,16.8817778 C17.4304444,17.0605926 17.3732593,17.4077037 17.5520741,17.656963 C17.7182222,17.8886667 18.0296296,17.9543704 18.273037,17.819037 L18.9904444,17.933037 C19.3326667,17.9877037 19.6794815,17.853037 19.8956296,17.582 C20.1116296,17.311037 20.1656296,16.942963 20.0364444,16.6212593 Z" id="Shape"></path>
                        </g>
                    </g>
                </g>
            </g>
        </g>
    </g>
</svg>