<?xml version="1.0" encoding="UTF-8"?>
<svg width="39px" height="38px" viewBox="0 0 39 38" version="1.1" xmlns="http://www.w3.org/2000/svg" xmlns:xlink="http://www.w3.org/1999/xlink">
    <!-- Generator: Sketch 48.2 (47327) - http://www.bohemiancoding.com/sketch -->
    <title>guitar-music</title>
    <desc>Created with Sketch.</desc>
    <defs></defs>
    <g id="HOG-1920/1140" stroke="none" stroke-width="1" fill="none" fill-rule="evenodd" transform="translate(-388.000000, -824.000000)">
        <g id="Header" transform="translate(-1.000000, -1.000000)" fill="#FFFFFF" fill-rule="nonzero">
            <g id="Bottom" transform="translate(0.000000, 780.000000)">
                <g id="Group-17">
                    <g id="Group-9" transform="translate(389.000000, 40.000000)">
                        <g id="guitar-music" transform="translate(0.000000, 5.000000)">
                            <path d="M16.321668,21.7250156 C14.5745586,19.9779062 11.7317578,19.9779805 9.98464844,21.7250898 C8.23761328,23.4721992 8.23761328,26.3149258 9.98472266,28.0621094 C10.8582031,28.9355898 12.0056992,29.3723672 13.1531211,29.3723672 C14.3006172,29.3723672 15.4481875,28.9355898 16.3215938,28.0621094 C18.0687031,26.315 18.0687031,23.4721992 16.321668,21.7250156 Z M15.5263398,27.2664844 C14.2178633,28.5748125 12.0888242,28.5748867 10.7803477,27.2665586 C9.47179688,25.958082 9.47179688,23.8289687 10.7801992,22.5205664 C11.4345859,21.8662539 12.2938164,21.5392461 13.1533438,21.5392461 C14.0125742,21.5392461 14.8721758,21.8664023 15.5263398,22.5204922 C16.834668,23.8289687 16.834668,25.958082 15.5263398,27.2664844 Z" id="Shape"></path>
                            <path d="M10.5242187,31.9110938 L5.92332422,27.3102734 C5.67639844,27.0631992 5.34716406,26.9271563 4.99633203,26.9271563 C4.6455,26.9271563 4.31626562,27.0631992 4.06933984,27.3101992 L4.04729687,27.3322422 C3.80029687,27.5793164 3.66432812,27.9085508 3.66432812,28.2592344 C3.66432812,28.609918 3.80029687,28.9392266 4.04729687,29.1862266 L8.64819141,33.7871211 C8.89526562,34.0341211 9.2245,34.1700898 9.57518359,34.1700898 C9.92586719,34.1700898 10.2551758,34.0341211 10.5021758,33.7871211 L10.5241445,33.7650781 C10.7712187,33.5180781 10.9072617,33.1888438 10.9072617,32.8380859 C10.9071875,32.4873281 10.7711445,32.1580938 10.5242187,31.9110938 Z M9.72866797,32.9696758 L9.706625,32.9917188 C9.63544922,33.063043 9.51484375,33.063043 9.44366797,32.9917188 L4.84284766,28.3908242 C4.77152344,28.3195742 4.77152344,28.1991172 4.84284766,28.1278672 L4.86489062,28.10575 C4.9115,28.0591406 4.96723828,28.0522383 4.99633203,28.0522383 C5.02542578,28.0522383 5.08123828,28.0592148 5.12777344,28.1058984 L9.72874219,32.706793 C9.77527734,32.7534023 9.78225391,32.8091406 9.78225391,32.8382344 C9.78225391,32.8673281 9.77527734,32.9230664 9.72866797,32.9696758 Z" id="Shape"></path>
                            <path d="M15.1119766,22.9349297 C14.5887344,22.4116875 13.8931563,22.1236445 13.1533438,22.1236445 C12.413457,22.1236445 11.7178047,22.4118359 11.1947852,22.9349297 C10.6714688,23.4581719 10.3834258,24.1536758 10.3834258,24.8934883 C10.3834258,25.633375 10.6716172,26.3290273 11.1947109,26.8520469 C11.7179531,27.3753633 12.413457,27.6634062 13.1533438,27.6634062 C13.8931563,27.6634062 14.5888086,27.3752891 15.1119766,26.8521211 C16.1918594,25.7721641 16.1918594,24.0148867 15.1119766,22.9349297 Z M14.3164258,26.0566445 C14.0056719,26.3673984 13.5927188,26.5385469 13.1532695,26.5385469 C12.7138203,26.5385469 12.300793,26.3673984 11.9900391,26.0566445 C11.6793594,25.7459648 11.5082109,25.3328633 11.5082109,24.8935625 C11.5082109,24.4542617 11.6793594,24.0411602 11.9901133,23.7304062 C12.300793,23.4197266 12.7138203,23.2485781 13.1532695,23.2485781 C13.5927188,23.2485781 14.0056719,23.4197266 14.3164258,23.7304805 C14.9578242,24.3718047 14.9578242,25.4153203 14.3164258,26.0566445 Z" id="Shape"></path>
                            <path d="M37.9094531,6.73505469 L36.8596289,5.68523047 L37.3398984,5.28548828 C37.4613945,5.18432812 37.5347969,5.03670703 37.5419219,4.87876953 C37.5490469,4.72083203 37.4895977,4.56719922 37.3778242,4.45527734 L36.1721406,3.24959375 C36.1664258,3.24276562 36.1611562,3.23571484 36.1550703,3.22910937 C36.138,3.21048047 36.1195937,3.19392969 36.100668,3.17819531 L33.591332,0.668859375 C33.4795586,0.557160156 33.3268906,0.497859375 33.1678398,0.504761719 C33.0099766,0.511960937 32.8622812,0.585289062 32.7611211,0.706785156 L32.3614531,1.18690625 L31.3531914,0.178570312 C31.1334297,-0.0410429688 30.7773281,-0.0410429688 30.5576406,0.178570312 L28.9128047,1.82340625 C28.6931172,2.04316797 28.6931172,2.39926953 28.9128047,2.61895703 L30.1443164,3.85046875 L28.207875,6.17678125 L18.569457,15.0885234 C17.9565586,14.8194805 17.323918,14.6348984 16.6834844,14.5410117 C16.3759961,14.4966289 16.0904023,14.7085977 16.0452773,15.0160117 C16.0002266,15.3234258 16.2128633,15.6090937 16.5202773,15.6542187 C16.9016133,15.7101055 17.2804258,15.8048828 17.653375,15.935582 L16.460457,17.0385469 C16.3480898,17.1424531 16.2829258,17.2875508 16.279957,17.4405898 C16.2770625,17.5934805 16.3364375,17.7411016 16.4445742,17.8493125 L20.0625156,21.4672539 C20.1681289,21.572793 20.3111484,21.6319453 20.4603281,21.6319453 C20.4628516,21.6319453 20.4654492,21.6319453 20.4680469,21.6318711 C20.6198242,21.6298672 20.7644023,21.5664844 20.8688281,21.4561953 L22.0366602,20.2229023 C22.8440117,22.3422187 22.4228945,24.5726406 20.8637812,26.1903867 C20.2681016,26.8084805 19.5702969,27.291793 18.7898867,27.6265937 C17.8219258,28.0418477 17.1408945,28.9520664 17.0125703,30.0020391 C16.7931055,31.7987266 15.9990391,33.4264922 14.7160195,34.7095117 C13.3080898,36.1174414 11.555043,36.8611133 9.64457812,36.8611133 C9.63604297,36.8611133 9.62721094,36.8611133 9.61860156,36.8610391 C7.48399609,36.853543 5.39280859,35.9208359 3.73023437,34.2347344 C0.526136719,30.9852148 0.362707031,26.2919922 3.35016016,23.3178984 C4.63191797,22.041707 6.25641797,21.2519453 8.04805859,21.0338906 C9.09350391,20.9065312 10.0040195,20.2218633 10.4243945,19.247 C10.7430156,18.5079297 11.19575,17.8421133 11.7702031,17.2676602 C12.5354727,16.5023164 13.4214961,15.991543 14.4035586,15.7494414 C14.7051094,15.675 14.8893945,15.3702578 14.8150273,15.0685586 C14.7405859,14.7670078 14.4356953,14.5826484 14.1341445,14.6570898 C12.9500586,14.9491406 11.8870234,15.5597383 10.9746523,16.4721094 C10.2991133,17.1475742 9.76637109,17.9313242 9.39119531,18.8016875 C9.12860937,19.4105781 8.56180078,19.8380039 7.91194141,19.9171211 C5.86929297,20.1657539 4.01723828,21.0660273 2.55624219,22.5206406 C0.851660156,24.2177266 -0.0265703125,26.4439922 0.0832734375,28.7892305 C0.189480469,31.0568359 1.20011719,33.2713008 2.92889453,35.0246445 C4.80358594,36.925832 7.17776953,37.9775117 9.61437109,37.9860469 C9.62461328,37.9861211 9.63448437,37.9861211 9.64457812,37.9861211 C11.8594883,37.9860469 13.8878125,37.1284492 15.5113477,35.5051367 C16.9736797,34.0427305 17.8788516,32.1870391 18.1289687,30.1386016 C18.2088281,29.4848086 18.6320234,28.9184453 19.2332695,28.6606094 C20.1522461,28.2662109 20.9733281,27.6978437 21.673582,26.971168 C23.6700664,24.8997227 24.1171602,22.002668 22.88075,19.3313867 L31.8673789,9.84088672 L34.1959922,7.90258984 L35.468918,9.17551562 C35.5787617,9.28528516 35.7228203,9.34020703 35.8667305,9.34020703 C36.0106406,9.34020703 36.154625,9.28528516 36.264543,9.17551562 L37.9093789,7.53067969 C38.1291406,7.31084375 38.1291406,6.95474219 37.9094531,6.73505469 Z M34.3684766,3.03703125 L34.9272695,3.59582422 L30.5116992,7.66457031 L30.3712773,7.52407422 L34.3684766,3.03703125 Z M30.1060195,2.22129297 L30.9553047,1.37200781 L31.6386367,2.05533984 L30.8670586,2.98225781 L30.1060195,2.22129297 Z M32.8343008,2.377375 C32.8351914,2.37633594 32.8360078,2.37529687 32.8368984,2.37425781 L33.2315195,1.90007422 L33.5715156,2.24007031 L29.5743906,6.7271875 L29.3774883,6.53028516 L32.8343008,2.377375 Z M20.4493437,20.2630547 L17.6538203,17.4675312 L28.601457,7.34535547 L30.0624531,8.80635156 C30.0683164,8.81332812 30.0736602,8.82052734 30.0798203,8.82728125 C30.0970391,8.84605859 30.115668,8.86283203 30.1348164,8.87871484 L30.696875,9.44077344 L20.4493437,20.2630547 Z M31.5164727,8.66926953 L31.307918,8.46071484 L35.7234883,4.39196875 L36.1466094,4.81508984 L31.5164727,8.66926953 Z M35.8668789,7.98207812 L35.0644258,7.179625 L35.991418,6.40804687 L36.7161641,7.13286719 L35.8668789,7.98207812 Z" id="Shape"></path>
                            <path d="M36.4690898,20.4454844 C36.3371289,20.3386094 36.1640508,20.2969727 35.9982461,20.332375 L28.1519141,21.9997734 C27.8921484,22.0549922 27.7063047,22.2844023 27.7063047,22.549957 L27.7063047,24.8934141 C27.7063047,25.204168 27.9580547,25.455918 28.2688086,25.455918 C28.5795625,25.455918 28.8313125,25.204168 28.8313125,24.8934141 L28.8313125,23.0054375 L35.5526367,21.5771719 L35.5526367,27.2705664 C35.0879531,26.990168 34.5108281,26.8237695 33.8861289,26.8237695 C32.3532891,26.8237695 31.1061914,27.8253516 31.1061914,29.056418 C31.1061914,30.2874844 32.3532891,31.2890664 33.8861289,31.2890664 C35.3315391,31.2890664 36.5223789,30.3985156 36.6536719,29.26475 C36.6691094,29.2133164 36.6776445,29.1588398 36.6776445,29.1023594 L36.6776445,20.8826328 C36.6776445,20.7129687 36.6009766,20.5522852 36.4690898,20.4454844 Z M33.8861289,30.1641328 C32.9890469,30.1641328 32.2311992,29.6569219 32.2311992,29.0564922 C32.2311992,28.4560625 32.9890469,27.9488516 33.8861289,27.9488516 C34.7832109,27.9488516 35.5411328,28.4560625 35.5411328,29.0564922 C35.5411328,29.6569219 34.7832109,30.1641328 33.8861289,30.1641328 Z" id="Shape"></path>
                            <path d="M28.8312383,27.1009766 C28.8312383,26.7902969 28.5794883,26.5384727 28.2687344,26.5384727 C27.9579805,26.5384727 27.7062305,26.7902227 27.7062305,27.1009766 L27.7062305,29.7009336 C27.2435508,29.4246914 26.6708047,29.2609648 26.0513008,29.2609648 C24.5184609,29.2609648 23.2712891,30.2625469 23.2712891,31.4936133 C23.2712891,32.7246797 24.5183867,33.7263359 26.0513008,33.7263359 C27.5842148,33.7263359 28.8312383,32.7247539 28.8312383,31.4936133 C28.8312383,31.4922031 28.8310898,31.490793 28.8310898,31.4892344 C28.8310898,31.4883437 28.8312383,31.4874531 28.8312383,31.4865625 L28.8312383,27.1009766 Z M26.0513008,32.6011797 C25.1542187,32.6011797 24.3962969,32.0939687 24.3962969,31.4934648 C24.3962969,30.8931094 25.1542187,30.3858242 26.0513008,30.3858242 C26.9483828,30.3858242 27.7062305,30.8930352 27.7062305,31.4934648 C27.7062305,32.094043 26.9483828,32.6011797 26.0513008,32.6011797 Z" id="Shape"></path>
                            <path d="M15.7371211,1.10548828 C15.6098359,0.998539063 15.4416562,0.953265625 15.2780781,0.982210938 L11.7242617,1.60587109 C11.418332,1.65960547 11.2137109,1.95121094 11.2675195,2.25721484 C11.3212539,2.56321875 11.6126367,2.76769141 11.9188633,2.71395703 L14.812875,2.20615234 L14.812875,7.92441016 C14.3481914,7.64401172 13.7711406,7.47761328 13.1464414,7.47761328 C11.6135273,7.47761328 10.3664297,8.47919531 10.3664297,9.71026172 C10.3664297,10.9413281 11.6135273,11.9428359 13.1464414,11.9428359 C14.5917773,11.9428359 15.7826172,11.0522852 15.9139102,9.91851953 C15.9293477,9.86708594 15.9378828,9.81260938 15.9378828,9.75612891 L15.9378828,1.53617969 C15.937957,1.37000391 15.8644805,1.21236328 15.7371211,1.10548828 Z M13.1464414,10.8177539 C12.2493594,10.8177539 11.4914375,10.310543 11.4914375,9.71011328 C11.4914375,9.10968359 12.2493594,8.60247266 13.1464414,8.60247266 C14.0435234,8.60247266 14.8013711,9.10968359 14.8013711,9.71011328 C14.8013711,10.310543 14.0435234,10.8177539 13.1464414,10.8177539 Z" id="Shape"></path>
                            <path d="M9.57933984,2.76791406 C9.51484375,2.46398828 9.21603906,2.26975781 8.9121875,2.334625 L7.41215234,2.65339453 C7.15238672,2.70861328 6.96654297,2.93802344 6.96654297,3.20357812 L6.96654297,10.3544805 C6.50386328,10.0782383 5.93111719,9.91451172 5.31161328,9.91451172 C3.77869922,9.91451172 2.53160156,10.9160937 2.53160156,12.1471602 C2.53160156,13.3782266 3.778625,14.3796602 5.31161328,14.3796602 C6.84452734,14.3796602 8.09155078,13.3780781 8.09155078,12.1470117 C8.09155078,12.1456016 8.09140234,12.1441914 8.09140234,12.1426328 C8.09140234,12.1417422 8.09155078,12.1408516 8.09155078,12.1399609 L8.09155078,3.65913281 L9.14597656,3.43514062 C9.44997656,3.37057031 9.64398437,3.07183984 9.57933984,2.76791406 Z M5.3116875,13.2548008 C4.41460547,13.2548008 3.65668359,12.7475898 3.65668359,12.1471602 C3.65668359,11.5467305 4.41460547,11.0395195 5.3116875,11.0395195 C6.20876953,11.0395195 6.96661719,11.5467305 6.96661719,12.1471602 C6.96661719,12.7475898 6.20876953,13.2548008 5.3116875,13.2548008 Z" id="Shape"></path>
                        </g>
                    </g>
                </g>
            </g>
        </g>
    </g>
</svg>