<?xml version="1.0" encoding="UTF-8"?>
<svg width="38px" height="38px" viewBox="0 0 38 38" version="1.1" xmlns="http://www.w3.org/2000/svg" xmlns:xlink="http://www.w3.org/1999/xlink">
    <!-- Generator: Sketch 48.2 (47327) - http://www.bohemiancoding.com/sketch -->
    <title>mirror-ball</title>
    <desc>Created with Sketch.</desc>
    <defs></defs>
    <g id="HOG-1920/1140" stroke="none" stroke-width="1" fill="none" fill-rule="evenodd" transform="translate(-1328.000000, -823.000000)">
        <g id="Header" transform="translate(-1.000000, -1.000000)" fill="#FFFFFF" fill-rule="nonzero">
            <g id="Bottom" transform="translate(0.000000, 780.000000)">
                <g id="Group-14" transform="translate(1251.000000, 0.000000)">
                    <g id="Group-10" transform="translate(78.000000, 40.000000)">
                        <g id="mirror-ball" transform="translate(0.000000, 4.000000)">
                            <path d="M37.7094336,20.2183008 L36.0205117,19.29925 L35.097082,17.6191602 C34.9993359,17.4411836 34.8123789,17.3305977 34.6093164,17.3305977 C34.4063281,17.3305977 34.2192969,17.4411836 34.1215508,17.6190859 L33.1980469,19.29925 L31.509125,20.2183008 C31.3300352,20.31575 31.2185586,20.503375 31.2185586,20.7072539 C31.2185586,20.9111328 31.3300352,21.0986836 31.509125,21.196207 L33.1980469,22.1152578 L34.1215508,23.7953477 C34.2192969,23.97325 34.4063281,24.0838359 34.6093164,24.0838359 C34.8123789,24.0838359 34.9993359,23.97325 35.097082,23.7952734 L36.0205117,22.1151836 L37.7094336,21.1961328 C37.8885234,21.0986836 38,20.9110586 38,20.7071797 C38,20.5033008 37.8885234,20.31575 37.7094336,20.2183008 Z M35.3451211,21.2152812 C35.2516055,21.2661953 35.1746406,21.3427891 35.1234297,21.4361562 L34.6092422,22.3716094 L34.0949805,21.4361562 C34.0437695,21.3428633 33.9667305,21.2661953 33.8732891,21.2153555 L32.9396172,20.7072539 L33.8732891,20.1991523 C33.9668047,20.1482383 34.0437695,20.0716445 34.0949805,19.9783516 L34.6092422,19.0428984 L35.1234297,19.9783516 C35.1746406,20.0716445 35.2516797,20.1483125 35.3451211,20.1992266 L36.278793,20.7073281 L35.3451211,21.2152812 Z" id="Shape"></path>
                            <path d="M30.4728086,27.5064336 L28.3158633,26.3326641 L27.1775703,24.2618125 C27.1674766,23.6225664 27.112332,22.9825781 27.0133242,22.3563945 C26.9653047,22.0528398 26.6805273,21.8451758 26.3765273,21.8935664 C26.0728984,21.9415859 25.8656797,22.2266602 25.9136992,22.5303633 C25.9860625,22.9873281 26.0327461,23.4523828 26.0536016,23.9188477 L21.094082,23.9188477 C21.0900742,23.5674219 21.0822813,23.2163672 21.0707773,22.8698398 C21.0605352,22.5625742 20.8029961,22.3239609 20.4959531,22.3319766 C20.1886875,22.3422187 19.9478477,22.5995352 19.9580898,22.906875 C19.9692227,23.2411562 19.976793,23.5798164 19.9808008,23.9189219 L14.1463906,23.9189219 L14.1463906,18.1191719 C14.4743633,18.122957 14.8022617,18.1300078 15.1265234,18.1403984 C15.1325352,18.1405469 15.1386211,18.1406953 15.1446328,18.1406953 C15.4437344,18.1406953 15.690957,17.9030469 15.7006055,17.6018672 C15.7104766,17.2946016 15.4693398,17.0375078 15.162,17.0277109 C14.8260117,17.0169492 14.4861641,17.0096758 14.1463164,17.0058164 L14.1463164,12.076207 C15.3514062,12.1286797 16.532375,12.3517812 17.6659922,12.7415039 L18.2386641,13.9402109 L15.508082,14.9064648 C15.1435937,15.035457 14.9080234,15.3682539 14.9080234,15.7542656 C14.9080234,16.1402773 15.1435195,16.4731484 15.508082,16.6021406 L18.2386641,17.5683203 L16.9954258,20.1706523 C16.8294727,20.5181445 16.8979023,20.919 17.1697656,21.1919766 C17.4427422,21.4659922 17.8450078,21.5362031 18.1949492,21.3706953 L20.8160586,20.1309453 L21.7878047,22.8496523 C21.9174648,23.2125078 22.2505586,23.4469648 22.6365703,23.4469648 C22.6366445,23.4469648 22.6366445,23.4469648 22.6367187,23.4469648 C23.022582,23.4469648 23.3558242,23.2125078 23.4856328,22.8496523 L24.4573047,20.1308711 L27.0784883,21.3706953 C27.4283555,21.5361289 27.8306211,21.465918 28.1035977,21.1919023 C28.3754609,20.9189258 28.4438906,20.5179961 28.2779375,20.1705781 L27.0347734,17.5681719 L29.7652812,16.6019922 C30.1298437,16.473 30.3654141,16.1401289 30.3654141,15.7541172 C30.3654141,15.3681055 30.1297695,15.0352344 29.7652812,14.9063164 L27.0347734,13.9401367 L28.2779375,11.3378047 C28.4438906,10.9903125 28.3754609,10.5893828 28.1035977,10.3164062 C27.8306211,10.0424648 27.4285039,9.97225391 27.0784141,10.1376875 L24.4573047,11.3774375 L23.4856328,8.65858203 C23.3558242,8.29572656 23.0226562,8.06134375 22.6366445,8.06134375 C22.250707,8.06134375 21.9176133,8.295875 21.7878789,8.65865625 L20.8161328,11.3774375 L18.1950234,10.1376875 C17.8452305,9.97225391 17.4428906,10.0423164 17.1698398,10.3164062 C16.8979766,10.5893828 16.8295469,10.9903125 16.9955,11.3377305 L17.0179883,11.3847109 C16.081793,11.1423867 15.1211055,11.0008516 14.1464648,10.9618125 L14.1464648,3.27460547 L18.2961836,3.27460547 C19.002375,3.27460547 19.5769023,2.70171094 19.5769023,1.99752344 L19.5769023,1.27708203 C19.5767539,0.572894531 19.0021523,0 18.2960352,0 L12.6524414,0 C12.3449531,0 12.0958008,0.249226562 12.0958008,0.556640625 C12.0958008,0.864054687 12.3449531,1.11328125 12.6524414,1.11328125 L18.2960352,1.11328125 C18.3883633,1.11328125 18.4634727,1.18675781 18.4634727,1.27708203 L18.4634727,1.99752344 C18.4634727,2.08784766 18.3883633,2.16132422 18.2960352,2.16132422 L8.88324219,2.16132422 C8.79091406,2.16132422 8.71580469,2.08784766 8.71580469,1.99752344 L8.71580469,1.27708203 C8.71580469,1.18675781 8.79091406,1.11328125 8.88324219,1.11328125 L10.6008867,1.11328125 C10.908375,1.11328125 11.1575273,0.864054687 11.1575273,0.556640625 C11.1575273,0.249226563 10.908375,0 10.6008867,0 L8.88324219,0 C8.17705078,0 7.60252344,0.572894531 7.60252344,1.27708203 L7.60252344,1.99752344 C7.60252344,2.70171094 8.17705078,3.27460547 8.88324219,3.27460547 L13.0329609,3.27460547 L13.0329609,10.9619609 C11.3058906,11.0315781 9.66068359,11.4234531 8.1569375,12.0787305 C8.12153516,12.0903086 8.08739453,12.1053008 8.05510937,12.1235586 C5.00457031,13.4827266 2.54585156,15.9291992 1.17955859,18.9648945 C1.16092969,18.9974023 1.14564063,19.0317656 1.13391406,19.0673906 C0.404714844,20.7244727 0,22.5537422 0,24.4754141 C0,26.3970859 0.404714844,28.2263555 1.13391406,29.8833633 C1.14564062,29.9189883 1.16092969,29.9533516 1.17955859,29.9859336 C2.54577734,33.0215547 5.00442187,35.4680273 8.05496094,36.8271211 C8.08746875,36.8454531 8.12153516,36.8605195 8.15708594,36.8720977 C9.8218125,37.5975117 11.6591719,38 13.5896016,38 C15.9507227,38 18.2763672,37.387918 20.3154531,36.229957 C22.2927891,35.1070273 23.9698359,33.4935117 25.1653516,31.5638242 C25.3272227,31.3025 25.2466211,30.9593867 24.9852969,30.7975156 C24.7240469,30.6356445 24.3809336,30.7161719 24.2189141,30.9775703 C23.0881914,32.8027578 21.548375,34.2651641 19.7544336,35.2785469 C20.0869336,34.0800625 20.3616172,32.7870977 20.5738828,31.4296367 C21.4330391,31.2967852 22.2669609,31.1390703 23.0679297,30.957457 C23.3676992,30.8893984 23.5556211,30.5912617 23.4876367,30.291418 C23.4195781,29.9916484 23.1217383,29.8038008 22.8215977,29.8717109 C22.1493242,30.0242305 21.4530781,30.1593086 20.7372383,30.2764258 C20.9517305,28.5924766 21.0730781,26.8269609 21.0939336,25.0320547 L25.6961641,25.0320547 L24.9812148,26.3325898 L22.8242695,27.5063594 C22.6451797,27.6038086 22.5337031,27.7914336 22.5337031,27.9953125 C22.5337031,28.1991914 22.6451797,28.3867422 22.8242695,28.4841914 L24.9812148,29.6580352 L26.1607734,31.8038477 C26.2585195,31.98175 26.4454766,32.0923359 26.6485391,32.0923359 C26.8516016,32.0923359 27.0385586,31.98175 27.1363047,31.8038477 L28.3158633,29.6580352 L30.4728086,28.4841914 C30.6518984,28.3867422 30.763375,28.1991914 30.763375,27.9953125 C30.763375,27.7914336 30.6518984,27.6038828 30.4728086,27.5064336 Z M20.5505781,12.4835195 C20.7803594,12.59225 21.0469531,12.5989297 21.2820781,12.5014805 C21.5166836,12.4043281 21.7001523,12.2116563 21.7854297,11.9728945 L22.6365703,9.59158594 L23.4876367,11.9728945 C23.5729141,12.211582 23.7563828,12.4043281 23.9909141,12.5014805 C24.2259648,12.5989297 24.492707,12.5923984 24.7224883,12.4835938 L27.0144375,11.3995547 L25.927207,13.6756211 C25.8175117,13.9051055 25.8104609,14.1714766 25.9076875,14.4063789 C26.0051367,14.6418008 26.1989961,14.8255664 26.4394648,14.9106211 L28.8237422,15.7542656 L26.4394648,16.5979102 C26.1989219,16.6830391 26.0050625,16.8668789 25.9076133,17.1023008 C25.8103867,17.3372773 25.8175117,17.6035742 25.9271328,17.8329102 L27.0144375,20.1090508 L24.7224141,19.0249375 C24.4924844,18.916207 24.2259648,18.9096758 23.9908398,19.007125 C23.7563828,19.1043516 23.5729141,19.2969492 23.4876367,19.5357109 L22.6365703,21.9170195 L21.7854297,19.5357109 C21.7001523,19.2969492 21.5166836,19.1042773 21.2821523,19.007125 C21.1716406,18.961332 21.0540781,18.9385469 20.9366641,18.9385469 C20.8044805,18.9385469 20.6723711,18.9674922 20.5506523,19.0250859 L18.2586289,20.109125 L19.3460078,17.8329102 C19.4556289,17.6035 19.4626055,17.3371289 19.3653789,17.1023008 C19.2679297,16.8669531 19.0740703,16.6831133 18.8336016,16.5980586 L16.4493242,15.7544141 L18.8335273,14.9107695 C19.0739961,14.8257148 19.2679297,14.6419492 19.3653789,14.4066016 C19.4626797,14.1716992 19.4556289,13.9053281 19.3460078,13.6757695 L18.2586289,11.3996289 L20.5505781,12.4835195 Z M7.41987109,13.6905391 C7.08944922,14.8842734 6.81654688,16.1714492 6.60517187,17.5226016 C5.24622656,17.7329375 3.95096094,18.004875 2.75039844,18.3339609 C3.86078516,16.4022695 5.47764063,14.7943945 7.41987109,13.6905391 Z M2.07671484,19.6927578 C3.40315234,19.2734219 4.87476172,18.9319414 6.44181641,18.6753672 C6.22747266,20.3589453 6.106125,22.1243867 6.08526953,23.9187734 L1.12567578,23.9187734 C1.19217578,22.4272734 1.52460156,21.0031641 2.07671484,19.6927578 Z M2.75047266,30.6168672 C3.95058984,30.9458047 5.24474219,31.2175937 6.60316797,31.4278555 C6.81580469,32.786875 7.08915234,34.0698945 7.41927734,35.259918 C5.47749219,34.1561367 3.86063672,32.5482617 2.75047266,30.6168672 Z M13.0330352,36.8746211 C11.5315898,36.8087148 10.0985,36.477625 8.77948437,35.927293 C8.35940625,34.6123594 8.01629297,33.1567813 7.75682422,31.5898008 C9.45057031,31.8034766 11.2275156,31.9245273 13.0330352,31.9451602 L13.0330352,36.8746211 Z M13.0330352,30.8318047 C9.01438672,30.7848984 5.15441797,30.2310781 2.07678906,29.2581445 C1.52467578,27.9477383 1.19225,26.5235547 1.12575,25.0321289 L6.08534375,25.0321289 C6.10033594,26.3393438 6.16802344,27.6365391 6.28714453,28.8958086 C6.31608984,29.2018867 6.58721094,29.4261758 6.89373437,29.3975273 C7.1998125,29.368582 7.42439844,29.0970156 7.39552734,28.7909375 C7.27959766,27.5662539 7.21369141,26.3043867 7.19877344,25.0321289 L11.3251875,25.0321289 C11.6326758,25.0321289 11.8818281,24.7829023 11.8818281,24.4754883 C11.8818281,24.1680742 11.6326758,23.9188477 11.3251875,23.9188477 L7.19869922,23.9188477 C7.22074219,22.0592227 7.35292578,20.2341094 7.58649219,18.5054063 C9.32566016,18.2727305 11.1621289,18.1409922 13.0330352,18.1191719 L13.0330352,30.8318047 Z M13.0331094,17.005668 C11.2278125,17.0263008 9.45183203,17.1472031 7.75830859,17.3608789 C8.01599609,15.8039922 8.3588125,14.3414375 8.77955859,13.0235352 C10.0985,12.4732031 11.5315898,12.1421875 13.0331094,12.0762813 L13.0331094,17.005668 Z M18.3957852,35.9399102 C17.0665273,36.4892031 15.6328437,36.8104219 14.1462422,36.8747695 L14.1462422,31.9452344 C15.9476797,31.9246758 17.7247734,31.8047383 19.4208203,31.5912109 C19.1623906,33.1524766 18.8183125,34.6188906 18.3957852,35.9399102 Z M19.5927109,30.4463867 C17.8497578,30.6793594 16.0127695,30.8101328 14.1462422,30.8318047 L14.1462422,25.0320547 L19.9806523,25.0320547 C19.9586094,26.8918281 19.8263516,28.7173867 19.5927109,30.4463867 Z M27.6405469,28.7581328 C27.5470312,28.8090469 27.4700664,28.8856406 27.4188555,28.9789336 L26.6486133,30.3801836 L25.8783711,28.9789336 C25.8271602,28.8856406 25.7501211,28.8090469 25.6566797,28.7581328 L24.2549844,27.9953125 L25.6566797,27.2325664 C25.7501953,27.1816523 25.8271602,27.1050586 25.8783711,27.0117656 L26.6486133,25.6105156 L27.4188555,27.0117656 C27.4700664,27.1050586 27.5471055,27.1817266 27.6405469,27.2325664 L29.0422422,27.9953125 L27.6405469,28.7581328 Z" id="Shape"></path>
                        </g>
                    </g>
                </g>
            </g>
        </g>
    </g>
</svg>