<?xml version="1.0" encoding="UTF-8"?>
<svg width="28px" height="38px" viewBox="0 0 28 38" version="1.1" xmlns="http://www.w3.org/2000/svg" xmlns:xlink="http://www.w3.org/1999/xlink">
    <!-- Generator: Sketch 48.2 (47327) - http://www.bohemiancoding.com/sketch -->
    <title>parade</title>
    <desc>Created with Sketch.</desc>
    <defs></defs>
    <g id="HOG-1920/1140" stroke="none" stroke-width="1" fill="none" fill-rule="evenodd" transform="translate(-734.000000, -822.000000)">
        <g id="Header" transform="translate(-1.000000, -1.000000)" fill="#FFFFFF" fill-rule="nonzero">
            <g id="Bottom" transform="translate(0.000000, 780.000000)">
                <g id="Group-16" transform="translate(667.000000, 0.000000)">
                    <g id="Group-7" transform="translate(68.000000, 40.000000)">
                        <g id="parade" transform="translate(0.000000, 3.000000)">
                            <path d="M27.6136055,16.0052734 C25.1562227,14.4780742 22.4909531,13.3892109 19.6766523,12.759168 C19.8927773,12.3965352 20.0169453,11.9731172 20.0169453,11.5212734 C20.0169453,10.7976406 19.6983984,10.1468906 19.1941562,9.70209766 C19.6983984,9.25730469 20.0169453,8.60655469 20.0169453,7.88292188 C20.0169453,7.15928906 19.6983984,6.50853906 19.1941562,6.06374609 C19.6983984,5.61895313 20.0169453,4.96820313 20.0169453,4.24457031 C20.0169453,3.09440234 19.212043,2.12859375 18.1360938,1.88070313 C17.8882031,0.804753906 16.9224687,0 15.7723008,0 C15.0485937,0 14.397918,0.318546875 13.953125,0.822789063 C13.508332,0.318546875 12.8576562,0 12.1339492,0 C10.9837812,0 10.0179727,0.804828125 9.77008203,1.88085156 C8.69413281,2.12874219 7.88923047,3.09447656 7.88923047,4.24471875 C7.88923047,4.96835156 8.20777734,5.61910156 8.71201953,6.06389453 C8.20777734,6.5086875 7.88923047,7.1594375 7.88923047,7.88307031 C7.88923047,8.60670312 8.20777734,9.25745312 8.71201953,9.70224609 C8.20777734,10.1470391 7.88923047,10.7977891 7.88923047,11.5214219 C7.88923047,11.9732656 8.01347266,12.3966836 8.22952344,12.7593164 C5.41514844,13.3892852 2.74995313,14.4782969 0.292570313,16.0054219 C0.0959648438,16.1276602 -0.0140273437,16.3511328 0.0093515625,16.581582 L0.812917969,24.5192031 C0.812992188,24.5200937 1.22208594,28.5612305 1.22208594,28.5612305 C1.25348047,28.8707969 1.51413672,29.1065156 1.82541016,29.1065156 L3.70848828,29.1065156 C4.03319531,31.4624414 5.16428906,33.6304453 6.93151172,35.2601406 C8.84769141,37.0269922 11.3412187,38 13.953125,38 C16.5650312,38 19.0585586,37.0269922 20.9745898,35.2600664 C22.7418125,33.6302969 23.8729062,31.4622187 24.1976133,29.1064414 L26.0807656,29.1064414 C26.3920391,29.1064414 26.6526953,28.8707227 26.6840898,28.5611562 L27.0931836,24.5198711 C27.0932578,24.5189805 27.8968242,16.5814336 27.8968242,16.5814336 C27.9202031,16.3509844 27.8102852,16.1275117 27.6136055,16.0052734 Z M10.3148477,12.7340078 C9.64613672,12.7340078 9.10211328,12.1899844 9.10211328,11.5212734 C9.10211328,10.8525625 9.64613672,10.3085391 10.3148477,10.3085391 C10.6497227,10.3085391 10.9212148,10.0371211 10.9212148,9.70217188 C10.9212148,9.36722266 10.6497227,9.09580469 10.3148477,9.09580469 C9.64613672,9.09580469 9.10211328,8.55178125 9.10211328,7.88307031 C9.10211328,7.21435938 9.64613672,6.67033594 10.3148477,6.67033594 C10.6497227,6.67033594 10.9212148,6.39891797 10.9212148,6.06396875 C10.9212148,5.72901953 10.6497227,5.45760156 10.3148477,5.45760156 C9.64613672,5.45760156 9.10211328,4.91357813 9.10211328,4.24486719 C9.10211328,3.57615625 9.64613672,3.03213281 10.3148477,3.03213281 C10.6497227,3.03213281 10.9212148,2.76071484 10.9212148,2.42576563 C10.9212148,1.75705469 11.4652383,1.21303125 12.1339492,1.21303125 C12.8026602,1.21303125 13.3466836,1.75705469 13.3466836,2.42576563 C13.3466836,2.76071484 13.6181758,3.03213281 13.9530508,3.03213281 C14.2879258,3.03213281 14.559418,2.76071484 14.559418,2.42576563 C14.559418,1.75705469 15.1034414,1.21303125 15.7721523,1.21303125 C16.4408633,1.21303125 16.9848867,1.75705469 16.9848867,2.42576563 C16.9848867,2.76071484 17.2563789,3.03213281 17.5912539,3.03213281 C18.2599648,3.03213281 18.8039883,3.57615625 18.8039883,4.24486719 C18.8039883,4.91357813 18.2599648,5.45760156 17.5912539,5.45760156 C17.2563789,5.45760156 16.9848867,5.72901953 16.9848867,6.06396875 C16.9848867,6.39891797 17.2563789,6.67033594 17.5912539,6.67033594 C18.2599648,6.67033594 18.8039883,7.21435938 18.8039883,7.88307031 C18.8039883,8.55178125 18.2599648,9.09580469 17.5912539,9.09580469 C17.2563789,9.09580469 16.9848867,9.36722266 16.9848867,9.70217188 C16.9848867,10.0371211 17.2563789,10.3085391 17.5912539,10.3085391 C18.2599648,10.3085391 18.8039883,10.8525625 18.8039883,11.5212734 C18.8039883,12.1899844 18.2599648,12.7340078 17.5912539,12.7340078 C17.2563789,12.7340078 16.9848867,13.0054258 16.9848867,13.340375 C16.9848867,13.6753242 17.2563789,13.9467422 17.5912539,13.9467422 C18.2599648,13.9467422 18.8039883,14.4907656 18.8039883,15.1594766 C18.8039883,15.8281875 18.2599648,16.3722109 17.5912539,16.3722109 C17.2563789,16.3722109 16.9848867,16.6436289 16.9848867,16.9785781 C16.9848867,17.2709258 16.880832,17.5438281 16.702707,17.7567617 C16.2943555,16.7628242 15.4789141,16.0262031 14.5004883,15.8230664 C14.5378203,15.7443203 14.5593437,15.656668 14.5593437,15.5636719 L14.5593437,4.85108594 C14.5593437,4.51613672 14.2878516,4.24471875 13.9529766,4.24471875 C13.6181016,4.24471875 13.3466094,4.51613672 13.3466094,4.85108594 L13.3466094,15.5638203 C13.3466094,15.6567422 13.3681328,15.7444687 13.4054648,15.8232148 C12.4270391,16.0264258 11.6115977,16.7630469 11.2032461,17.7569102 C11.0251211,17.5439766 10.9210664,17.2710742 10.9210664,16.9787266 C10.9210664,16.6437773 10.6495742,16.3723594 10.3146992,16.3723594 C9.64598828,16.3723594 9.10196484,15.8283359 9.10196484,15.159625 C9.10196484,14.4909141 9.64598828,13.9468906 10.3146992,13.9468906 C10.6495742,13.9468906 10.9210664,13.6754727 10.9210664,13.3405234 C10.9210664,13.0055742 10.6497227,12.7340078 10.3148477,12.7340078 Z M15.7723008,19.2020977 C15.7723008,20.428043 14.9562656,21.4254687 13.953125,21.4254687 C12.9499844,21.4254687 12.1339492,20.428043 12.1339492,19.2020977 C12.1339492,19.0581133 12.1456016,18.9174687 12.167125,18.7810547 C12.1673477,18.7790508 12.167793,18.7769727 12.1680156,18.7749687 C12.3314453,17.7527539 13.0695508,16.9787266 13.953125,16.9787266 C14.8366992,16.9787266 15.5748047,17.7528281 15.7382344,18.775043 C15.738457,18.7769727 15.7389023,18.7789023 15.739125,18.780832 C15.7606484,18.9173945 15.7723008,19.0580391 15.7723008,19.2020977 Z M2.37358984,27.8936328 L2.08710547,25.0638203 L4.91068359,25.0638203 L5.19716797,27.8936328 L4.26342187,27.8936328 C4.26245703,27.8936328 2.37358984,27.8936328 2.37358984,27.8936328 Z M13.953125,36.7872656 C9.46170312,36.7872656 5.62221875,33.4633789 4.93428516,29.1064414 L22.9719648,29.1064414 C22.2840313,33.4633789 18.4445469,36.7872656 13.953125,36.7872656 Z M25.5326602,27.8936328 L23.6443867,27.8936328 C23.642457,27.8936328 22.709082,27.8936328 22.709082,27.8936328 L22.9955664,25.0638203 L25.8191445,25.0638203 L25.5326602,27.8936328 Z M25.9419766,23.8510859 L23.1183984,23.8510859 L23.1327227,23.7100703 C23.166418,23.3769023 22.9237227,23.0793594 22.5904805,23.0456641 C22.256793,23.0119688 21.9598437,23.2547383 21.9261484,23.587832 L21.8995039,23.8510859 L7.88425781,23.8510859 C7.54938281,23.8510859 7.27789062,24.1225039 7.27789062,24.4574531 C7.27789062,24.7924023 7.54938281,25.0638203 7.88425781,25.0638203 L21.7765977,25.0638203 L21.4901133,27.8936328 L6.41613672,27.8936328 L6.06203906,24.396 C6.06196484,24.3948867 5.98025,23.587832 5.98025,23.587832 C5.94655469,23.2546641 5.64856641,23.010707 5.31591797,23.0456641 C4.98275,23.0793594 4.73990625,23.3769023 4.77367578,23.7100703 L4.788,23.8510859 L1.96427344,23.8510859 L1.25437109,16.8388984 C3.41213281,15.5429648 5.73384375,14.5978633 8.17601172,14.0170273 C7.99328516,14.3577656 7.88923047,14.7466719 7.88923047,15.159625 C7.88923047,16.3097188 8.69391016,17.2754531 9.76971094,17.523418 C9.92007812,18.1800313 10.3382266,18.7448359 10.9237383,19.0808984 C10.9225508,19.1212734 10.9209922,19.1615 10.9209922,19.2021719 C10.9209922,21.0969023 12.2810508,22.6383516 13.9529023,22.6383516 C15.6247539,22.6383516 16.9848125,21.0969023 16.9848125,19.2021719 C16.9848125,19.1615 16.9833281,19.1212734 16.9820664,19.0808984 C17.5676523,18.7448359 17.9857266,18.1800313 18.1360937,17.523418 C19.212043,17.2754531 20.0167969,16.309793 20.0167969,15.159625 C20.0167969,14.7467461 19.9127422,14.3577656 19.7300156,14.0170273 C22.1721836,14.5979375 24.4938945,15.5429648 26.6516562,16.8388984 L25.9419766,23.8510859 Z" id="Shape"></path>
                        </g>
                    </g>
                </g>
            </g>
        </g>
    </g>
</svg>