<?xml version="1.0" encoding="UTF-8"?>
<svg width="33px" height="21px" viewBox="0 0 33 21" version="1.1" xmlns="http://www.w3.org/2000/svg" xmlns:xlink="http://www.w3.org/1999/xlink">
    <!-- Generator: Sketch 48.2 (47327) - http://www.bohemiancoding.com/sketch -->
    <title>view</title>
    <desc>Created with Sketch.</desc>
    <defs></defs>
    <g id="HOG-1920/1140" stroke="none" stroke-width="1" fill="none" fill-rule="evenodd" transform="translate(-642.000000, -2829.000000)">
        <g id="Exurse" transform="translate(0.000000, 1911.000000)" fill="#FFFFFF" fill-rule="nonzero">
            <g id="li-2-Open" transform="translate(389.000000, 487.000000)">
                <g id="Gallery" transform="translate(46.000000, 394.000000)">
                    <g id="Hover" transform="translate(162.000000, 1.000000)">
                        <g id="view" transform="translate(45.500000, 36.334615)">
                            <path d="M31.7965625,9.6275625 C31.5106875,9.2365 24.69925,0.0521875 15.9998125,0.0521875 C7.300375,0.0521875 0.488625,9.2365 0.2030625,9.6271875 C-0.0676875,9.9981875 -0.0676875,10.501375 0.2030625,10.872375 C0.488625,11.2634375 7.300375,20.44775 15.9998125,20.44775 C24.69925,20.44775 31.5106875,11.263375 31.7965625,10.8726875 C32.0676875,10.50175 32.0676875,9.9981875 31.7965625,9.6275625 Z M15.9998125,18.337875 C9.59175,18.337875 4.0416875,12.2420625 2.39875,10.24925 C4.0395625,8.2546875 9.578,2.1620625 15.9998125,2.1620625 C22.4075625,2.1620625 27.95725,8.2568125 29.600875,10.2506875 C27.9600625,12.2451875 22.421625,18.337875 15.9998125,18.337875 Z" id="Shape"></path>
                            <path d="M15.9998125,3.9203125 C12.5096875,3.9203125 9.670125,6.759875 9.670125,10.25 C9.670125,13.740125 12.5096875,16.5796875 15.9998125,16.5796875 C19.4899375,16.5796875 22.3295,13.740125 22.3295,10.25 C22.3295,6.759875 19.4899375,3.9203125 15.9998125,3.9203125 Z M15.9998125,14.46975 C13.6729375,14.46975 11.7800625,12.5768125 11.7800625,10.25 C11.7800625,7.9231875 13.673,6.03025 15.9998125,6.03025 C18.326625,6.03025 20.2195625,7.9231875 20.2195625,10.25 C20.2195625,12.5768125 18.3266875,14.46975 15.9998125,14.46975 Z" id="Shape"></path>
                        </g>
                    </g>
                </g>
            </g>
        </g>
    </g>
</svg>